<?xml version="1.0" encoding="utf-8" standalone="no"?>
<!DOCTYPE svg PUBLIC "-//W3C//DTD SVG 1.1//EN"
  "http://www.w3.org/Graphics/SVG/1.1/DTD/svg11.dtd">
<svg xmlns:xlink="http://www.w3.org/1999/xlink" width="460.8pt" height="345.6pt" viewBox="0 0 460.8 345.6" xmlns="http://www.w3.org/2000/svg" version="1.1">
 <metadata>
  <rdf:RDF xmlns:dc="http://purl.org/dc/elements/1.1/" xmlns:cc="http://creativecommons.org/ns#" xmlns:rdf="http://www.w3.org/1999/02/22-rdf-syntax-ns#">
   <cc:Work>
    <dc:type rdf:resource="http://purl.org/dc/dcmitype/StillImage"/>
    <dc:date>2023-11-23T21:26:59.130727</dc:date>
    <dc:format>image/svg+xml</dc:format>
    <dc:creator>
     <cc:Agent>
      <dc:title>Matplotlib v3.7.2, https://matplotlib.org/</dc:title>
     </cc:Agent>
    </dc:creator>
   </cc:Work>
  </rdf:RDF>
 </metadata>
 <defs>
  <style type="text/css">*{stroke-linejoin: round; stroke-linecap: butt}</style>
 </defs>
 <g id="figure_1">
  <g id="patch_1">
   <path d="M 0 345.6 
L 460.8 345.6 
L 460.8 0 
L 0 0 
z
" style="fill: #ffffff"/>
  </g>
  <g id="axes_1">
   <g id="patch_2">
    <path d="M 63.38 284.3185 
L 449.58405 284.3185 
L 449.58405 25.44 
L 63.38 25.44 
z
" style="fill: #ffffff"/>
   </g>
   <g id="matplotlib.axis_1">
    <g id="xtick_1">
     <g id="line2d_1">
      <defs>
       <path id="m8f503849e7" d="M 0 0 
L 0 3.5 
" style="stroke: #000000; stroke-width: 0.8"/>
      </defs>
      <g>
       <use xlink:href="#m8f503849e7" x="63.38" y="284.3185" style="stroke: #000000; stroke-width: 0.8"/>
      </g>
     </g>
     <g id="text_1">
      <!-- 0.000 -->
      <g transform="translate(50.246044 296.691407) rotate(-315) scale(0.1 -0.1)">
       <defs>
        <path id="DejaVuSans-Bold-30" d="M 2944 2338 
Q 2944 3213 2780 3570 
Q 2616 3928 2228 3928 
Q 1841 3928 1675 3570 
Q 1509 3213 1509 2338 
Q 1509 1453 1675 1090 
Q 1841 728 2228 728 
Q 2613 728 2778 1090 
Q 2944 1453 2944 2338 
z
M 4147 2328 
Q 4147 1169 3647 539 
Q 3147 -91 2228 -91 
Q 1306 -91 806 539 
Q 306 1169 306 2328 
Q 306 3491 806 4120 
Q 1306 4750 2228 4750 
Q 3147 4750 3647 4120 
Q 4147 3491 4147 2328 
z
" transform="scale(0.015625)"/>
        <path id="DejaVuSans-Bold-2e" d="M 653 1209 
L 1778 1209 
L 1778 0 
L 653 0 
L 653 1209 
z
" transform="scale(0.015625)"/>
       </defs>
       <use xlink:href="#DejaVuSans-Bold-30"/>
       <use xlink:href="#DejaVuSans-Bold-2e" x="69.580078"/>
       <use xlink:href="#DejaVuSans-Bold-30" x="107.568359"/>
       <use xlink:href="#DejaVuSans-Bold-30" x="177.148438"/>
       <use xlink:href="#DejaVuSans-Bold-30" x="246.728516"/>
      </g>
     </g>
    </g>
    <g id="xtick_2">
     <g id="line2d_2">
      <g>
       <use xlink:href="#m8f503849e7" x="125.172648" y="284.3185" style="stroke: #000000; stroke-width: 0.8"/>
      </g>
     </g>
     <g id="text_2">
      <!-- 0.002 -->
      <g transform="translate(112.038692 296.691407) rotate(-315) scale(0.1 -0.1)">
       <defs>
        <path id="DejaVuSans-Bold-32" d="M 1844 884 
L 3897 884 
L 3897 0 
L 506 0 
L 506 884 
L 2209 2388 
Q 2438 2594 2547 2791 
Q 2656 2988 2656 3200 
Q 2656 3528 2436 3728 
Q 2216 3928 1850 3928 
Q 1569 3928 1234 3808 
Q 900 3688 519 3450 
L 519 4475 
Q 925 4609 1322 4679 
Q 1719 4750 2100 4750 
Q 2938 4750 3402 4381 
Q 3866 4013 3866 3353 
Q 3866 2972 3669 2642 
Q 3472 2313 2841 1759 
L 1844 884 
z
" transform="scale(0.015625)"/>
       </defs>
       <use xlink:href="#DejaVuSans-Bold-30"/>
       <use xlink:href="#DejaVuSans-Bold-2e" x="69.580078"/>
       <use xlink:href="#DejaVuSans-Bold-30" x="107.568359"/>
       <use xlink:href="#DejaVuSans-Bold-30" x="177.148438"/>
       <use xlink:href="#DejaVuSans-Bold-32" x="246.728516"/>
      </g>
     </g>
    </g>
    <g id="xtick_3">
     <g id="line2d_3">
      <g>
       <use xlink:href="#m8f503849e7" x="186.965296" y="284.3185" style="stroke: #000000; stroke-width: 0.8"/>
      </g>
     </g>
     <g id="text_3">
      <!-- 0.004 -->
      <g transform="translate(173.83134 296.691407) rotate(-315) scale(0.1 -0.1)">
       <defs>
        <path id="DejaVuSans-Bold-34" d="M 2356 3675 
L 1038 1722 
L 2356 1722 
L 2356 3675 
z
M 2156 4666 
L 3494 4666 
L 3494 1722 
L 4159 1722 
L 4159 850 
L 3494 850 
L 3494 0 
L 2356 0 
L 2356 850 
L 288 850 
L 288 1881 
L 2156 4666 
z
" transform="scale(0.015625)"/>
       </defs>
       <use xlink:href="#DejaVuSans-Bold-30"/>
       <use xlink:href="#DejaVuSans-Bold-2e" x="69.580078"/>
       <use xlink:href="#DejaVuSans-Bold-30" x="107.568359"/>
       <use xlink:href="#DejaVuSans-Bold-30" x="177.148438"/>
       <use xlink:href="#DejaVuSans-Bold-34" x="246.728516"/>
      </g>
     </g>
    </g>
    <g id="xtick_4">
     <g id="line2d_4">
      <g>
       <use xlink:href="#m8f503849e7" x="248.757944" y="284.3185" style="stroke: #000000; stroke-width: 0.8"/>
      </g>
     </g>
     <g id="text_4">
      <!-- 0.006 -->
      <g transform="translate(235.623988 296.691407) rotate(-315) scale(0.1 -0.1)">
       <defs>
        <path id="DejaVuSans-Bold-36" d="M 2316 2303 
Q 2000 2303 1842 2098 
Q 1684 1894 1684 1484 
Q 1684 1075 1842 870 
Q 2000 666 2316 666 
Q 2634 666 2792 870 
Q 2950 1075 2950 1484 
Q 2950 1894 2792 2098 
Q 2634 2303 2316 2303 
z
M 3803 4544 
L 3803 3681 
Q 3506 3822 3243 3889 
Q 2981 3956 2731 3956 
Q 2194 3956 1894 3657 
Q 1594 3359 1544 2772 
Q 1750 2925 1990 3001 
Q 2231 3078 2516 3078 
Q 3231 3078 3670 2659 
Q 4109 2241 4109 1563 
Q 4109 813 3618 361 
Q 3128 -91 2303 -91 
Q 1394 -91 895 523 
Q 397 1138 397 2266 
Q 397 3422 980 4083 
Q 1563 4744 2578 4744 
Q 2900 4744 3203 4694 
Q 3506 4644 3803 4544 
z
" transform="scale(0.015625)"/>
       </defs>
       <use xlink:href="#DejaVuSans-Bold-30"/>
       <use xlink:href="#DejaVuSans-Bold-2e" x="69.580078"/>
       <use xlink:href="#DejaVuSans-Bold-30" x="107.568359"/>
       <use xlink:href="#DejaVuSans-Bold-30" x="177.148438"/>
       <use xlink:href="#DejaVuSans-Bold-36" x="246.728516"/>
      </g>
     </g>
    </g>
    <g id="xtick_5">
     <g id="line2d_5">
      <g>
       <use xlink:href="#m8f503849e7" x="310.550592" y="284.3185" style="stroke: #000000; stroke-width: 0.8"/>
      </g>
     </g>
     <g id="text_5">
      <!-- 0.008 -->
      <g transform="translate(297.416636 296.691407) rotate(-315) scale(0.1 -0.1)">
       <defs>
        <path id="DejaVuSans-Bold-38" d="M 2228 2088 
Q 1891 2088 1709 1903 
Q 1528 1719 1528 1375 
Q 1528 1031 1709 848 
Q 1891 666 2228 666 
Q 2563 666 2741 848 
Q 2919 1031 2919 1375 
Q 2919 1722 2741 1905 
Q 2563 2088 2228 2088 
z
M 1350 2484 
Q 925 2613 709 2878 
Q 494 3144 494 3541 
Q 494 4131 934 4440 
Q 1375 4750 2228 4750 
Q 3075 4750 3515 4442 
Q 3956 4134 3956 3541 
Q 3956 3144 3739 2878 
Q 3522 2613 3097 2484 
Q 3572 2353 3814 2058 
Q 4056 1763 4056 1313 
Q 4056 619 3595 264 
Q 3134 -91 2228 -91 
Q 1319 -91 855 264 
Q 391 619 391 1313 
Q 391 1763 633 2058 
Q 875 2353 1350 2484 
z
M 1631 3419 
Q 1631 3141 1786 2991 
Q 1941 2841 2228 2841 
Q 2509 2841 2662 2991 
Q 2816 3141 2816 3419 
Q 2816 3697 2662 3845 
Q 2509 3994 2228 3994 
Q 1941 3994 1786 3844 
Q 1631 3694 1631 3419 
z
" transform="scale(0.015625)"/>
       </defs>
       <use xlink:href="#DejaVuSans-Bold-30"/>
       <use xlink:href="#DejaVuSans-Bold-2e" x="69.580078"/>
       <use xlink:href="#DejaVuSans-Bold-30" x="107.568359"/>
       <use xlink:href="#DejaVuSans-Bold-30" x="177.148438"/>
       <use xlink:href="#DejaVuSans-Bold-38" x="246.728516"/>
      </g>
     </g>
    </g>
    <g id="xtick_6">
     <g id="line2d_6">
      <g>
       <use xlink:href="#m8f503849e7" x="372.34324" y="284.3185" style="stroke: #000000; stroke-width: 0.8"/>
      </g>
     </g>
     <g id="text_6">
      <!-- 0.010 -->
      <g transform="translate(359.209284 296.691407) rotate(-315) scale(0.1 -0.1)">
       <defs>
        <path id="DejaVuSans-Bold-31" d="M 750 831 
L 1813 831 
L 1813 3847 
L 722 3622 
L 722 4441 
L 1806 4666 
L 2950 4666 
L 2950 831 
L 4013 831 
L 4013 0 
L 750 0 
L 750 831 
z
" transform="scale(0.015625)"/>
       </defs>
       <use xlink:href="#DejaVuSans-Bold-30"/>
       <use xlink:href="#DejaVuSans-Bold-2e" x="69.580078"/>
       <use xlink:href="#DejaVuSans-Bold-30" x="107.568359"/>
       <use xlink:href="#DejaVuSans-Bold-31" x="177.148438"/>
       <use xlink:href="#DejaVuSans-Bold-30" x="246.728516"/>
      </g>
     </g>
    </g>
    <g id="xtick_7">
     <g id="line2d_7">
      <g>
       <use xlink:href="#m8f503849e7" x="434.135888" y="284.3185" style="stroke: #000000; stroke-width: 0.8"/>
      </g>
     </g>
     <g id="text_7">
      <!-- 0.012 -->
      <g transform="translate(421.001932 296.691407) rotate(-315) scale(0.1 -0.1)">
       <use xlink:href="#DejaVuSans-Bold-30"/>
       <use xlink:href="#DejaVuSans-Bold-2e" x="69.580078"/>
       <use xlink:href="#DejaVuSans-Bold-30" x="107.568359"/>
       <use xlink:href="#DejaVuSans-Bold-31" x="177.148438"/>
       <use xlink:href="#DejaVuSans-Bold-32" x="246.728516"/>
      </g>
     </g>
    </g>
    <g id="text_8">
     <!-- radial distance(m) -->
     <g transform="translate(204.792181 332.125972) scale(0.1 -0.1)">
      <defs>
       <path id="DejaVuSans-Bold-72" d="M 3138 2547 
Q 2991 2616 2845 2648 
Q 2700 2681 2553 2681 
Q 2122 2681 1889 2404 
Q 1656 2128 1656 1613 
L 1656 0 
L 538 0 
L 538 3500 
L 1656 3500 
L 1656 2925 
Q 1872 3269 2151 3426 
Q 2431 3584 2822 3584 
Q 2878 3584 2943 3579 
Q 3009 3575 3134 3559 
L 3138 2547 
z
" transform="scale(0.015625)"/>
       <path id="DejaVuSans-Bold-61" d="M 2106 1575 
Q 1756 1575 1579 1456 
Q 1403 1338 1403 1106 
Q 1403 894 1545 773 
Q 1688 653 1941 653 
Q 2256 653 2472 879 
Q 2688 1106 2688 1447 
L 2688 1575 
L 2106 1575 
z
M 3816 1997 
L 3816 0 
L 2688 0 
L 2688 519 
Q 2463 200 2181 54 
Q 1900 -91 1497 -91 
Q 953 -91 614 226 
Q 275 544 275 1050 
Q 275 1666 698 1953 
Q 1122 2241 2028 2241 
L 2688 2241 
L 2688 2328 
Q 2688 2594 2478 2717 
Q 2269 2841 1825 2841 
Q 1466 2841 1156 2769 
Q 847 2697 581 2553 
L 581 3406 
Q 941 3494 1303 3539 
Q 1666 3584 2028 3584 
Q 2975 3584 3395 3211 
Q 3816 2838 3816 1997 
z
" transform="scale(0.015625)"/>
       <path id="DejaVuSans-Bold-64" d="M 2919 2988 
L 2919 4863 
L 4044 4863 
L 4044 0 
L 2919 0 
L 2919 506 
Q 2688 197 2409 53 
Q 2131 -91 1766 -91 
Q 1119 -91 703 423 
Q 288 938 288 1747 
Q 288 2556 703 3070 
Q 1119 3584 1766 3584 
Q 2128 3584 2408 3439 
Q 2688 3294 2919 2988 
z
M 2181 722 
Q 2541 722 2730 984 
Q 2919 1247 2919 1747 
Q 2919 2247 2730 2509 
Q 2541 2772 2181 2772 
Q 1825 2772 1636 2509 
Q 1447 2247 1447 1747 
Q 1447 1247 1636 984 
Q 1825 722 2181 722 
z
" transform="scale(0.015625)"/>
       <path id="DejaVuSans-Bold-69" d="M 538 3500 
L 1656 3500 
L 1656 0 
L 538 0 
L 538 3500 
z
M 538 4863 
L 1656 4863 
L 1656 3950 
L 538 3950 
L 538 4863 
z
" transform="scale(0.015625)"/>
       <path id="DejaVuSans-Bold-6c" d="M 538 4863 
L 1656 4863 
L 1656 0 
L 538 0 
L 538 4863 
z
" transform="scale(0.015625)"/>
       <path id="DejaVuSans-Bold-20" transform="scale(0.015625)"/>
       <path id="DejaVuSans-Bold-73" d="M 3272 3391 
L 3272 2541 
Q 2913 2691 2578 2766 
Q 2244 2841 1947 2841 
Q 1628 2841 1473 2761 
Q 1319 2681 1319 2516 
Q 1319 2381 1436 2309 
Q 1553 2238 1856 2203 
L 2053 2175 
Q 2913 2066 3209 1816 
Q 3506 1566 3506 1031 
Q 3506 472 3093 190 
Q 2681 -91 1863 -91 
Q 1516 -91 1145 -36 
Q 775 19 384 128 
L 384 978 
Q 719 816 1070 734 
Q 1422 653 1784 653 
Q 2113 653 2278 743 
Q 2444 834 2444 1013 
Q 2444 1163 2330 1236 
Q 2216 1309 1875 1350 
L 1678 1375 
Q 931 1469 631 1722 
Q 331 1975 331 2491 
Q 331 3047 712 3315 
Q 1094 3584 1881 3584 
Q 2191 3584 2531 3537 
Q 2872 3491 3272 3391 
z
" transform="scale(0.015625)"/>
       <path id="DejaVuSans-Bold-74" d="M 1759 4494 
L 1759 3500 
L 2913 3500 
L 2913 2700 
L 1759 2700 
L 1759 1216 
Q 1759 972 1856 886 
Q 1953 800 2241 800 
L 2816 800 
L 2816 0 
L 1856 0 
Q 1194 0 917 276 
Q 641 553 641 1216 
L 641 2700 
L 84 2700 
L 84 3500 
L 641 3500 
L 641 4494 
L 1759 4494 
z
" transform="scale(0.015625)"/>
       <path id="DejaVuSans-Bold-6e" d="M 4056 2131 
L 4056 0 
L 2931 0 
L 2931 347 
L 2931 1631 
Q 2931 2084 2911 2256 
Q 2891 2428 2841 2509 
Q 2775 2619 2662 2680 
Q 2550 2741 2406 2741 
Q 2056 2741 1856 2470 
Q 1656 2200 1656 1722 
L 1656 0 
L 538 0 
L 538 3500 
L 1656 3500 
L 1656 2988 
Q 1909 3294 2193 3439 
Q 2478 3584 2822 3584 
Q 3428 3584 3742 3212 
Q 4056 2841 4056 2131 
z
" transform="scale(0.015625)"/>
       <path id="DejaVuSans-Bold-63" d="M 3366 3391 
L 3366 2478 
Q 3138 2634 2908 2709 
Q 2678 2784 2431 2784 
Q 1963 2784 1702 2511 
Q 1441 2238 1441 1747 
Q 1441 1256 1702 982 
Q 1963 709 2431 709 
Q 2694 709 2930 787 
Q 3166 866 3366 1019 
L 3366 103 
Q 3103 6 2833 -42 
Q 2563 -91 2291 -91 
Q 1344 -91 809 395 
Q 275 881 275 1747 
Q 275 2613 809 3098 
Q 1344 3584 2291 3584 
Q 2566 3584 2833 3536 
Q 3100 3488 3366 3391 
z
" transform="scale(0.015625)"/>
       <path id="DejaVuSans-Bold-65" d="M 4031 1759 
L 4031 1441 
L 1416 1441 
Q 1456 1047 1700 850 
Q 1944 653 2381 653 
Q 2734 653 3104 758 
Q 3475 863 3866 1075 
L 3866 213 
Q 3469 63 3072 -14 
Q 2675 -91 2278 -91 
Q 1328 -91 801 392 
Q 275 875 275 1747 
Q 275 2603 792 3093 
Q 1309 3584 2216 3584 
Q 3041 3584 3536 3087 
Q 4031 2591 4031 1759 
z
M 2881 2131 
Q 2881 2450 2695 2645 
Q 2509 2841 2209 2841 
Q 1884 2841 1681 2658 
Q 1478 2475 1428 2131 
L 2881 2131 
z
" transform="scale(0.015625)"/>
       <path id="DejaVuSans-Bold-28" d="M 2413 -844 
L 1484 -844 
Q 1006 -72 778 623 
Q 550 1319 550 2003 
Q 550 2688 779 3389 
Q 1009 4091 1484 4856 
L 2413 4856 
Q 2013 4116 1813 3408 
Q 1613 2700 1613 2009 
Q 1613 1319 1811 609 
Q 2009 -100 2413 -844 
z
" transform="scale(0.015625)"/>
       <path id="DejaVuSans-Bold-6d" d="M 3781 2919 
Q 3994 3244 4286 3414 
Q 4578 3584 4928 3584 
Q 5531 3584 5847 3212 
Q 6163 2841 6163 2131 
L 6163 0 
L 5038 0 
L 5038 1825 
Q 5041 1866 5042 1909 
Q 5044 1953 5044 2034 
Q 5044 2406 4934 2573 
Q 4825 2741 4581 2741 
Q 4263 2741 4089 2478 
Q 3916 2216 3909 1719 
L 3909 0 
L 2784 0 
L 2784 1825 
Q 2784 2406 2684 2573 
Q 2584 2741 2328 2741 
Q 2006 2741 1831 2477 
Q 1656 2213 1656 1722 
L 1656 0 
L 531 0 
L 531 3500 
L 1656 3500 
L 1656 2988 
Q 1863 3284 2130 3434 
Q 2397 3584 2719 3584 
Q 3081 3584 3359 3409 
Q 3638 3234 3781 2919 
z
" transform="scale(0.015625)"/>
       <path id="DejaVuSans-Bold-29" d="M 513 -844 
Q 913 -100 1113 609 
Q 1313 1319 1313 2009 
Q 1313 2700 1113 3408 
Q 913 4116 513 4856 
L 1441 4856 
Q 1916 4091 2145 3389 
Q 2375 2688 2375 2003 
Q 2375 1319 2147 623 
Q 1919 -72 1441 -844 
L 513 -844 
z
" transform="scale(0.015625)"/>
      </defs>
      <use xlink:href="#DejaVuSans-Bold-72"/>
      <use xlink:href="#DejaVuSans-Bold-61" x="49.316406"/>
      <use xlink:href="#DejaVuSans-Bold-64" x="116.796875"/>
      <use xlink:href="#DejaVuSans-Bold-69" x="188.378906"/>
      <use xlink:href="#DejaVuSans-Bold-61" x="222.65625"/>
      <use xlink:href="#DejaVuSans-Bold-6c" x="290.136719"/>
      <use xlink:href="#DejaVuSans-Bold-20" x="324.414062"/>
      <use xlink:href="#DejaVuSans-Bold-64" x="359.228516"/>
      <use xlink:href="#DejaVuSans-Bold-69" x="430.810547"/>
      <use xlink:href="#DejaVuSans-Bold-73" x="465.087891"/>
      <use xlink:href="#DejaVuSans-Bold-74" x="524.609375"/>
      <use xlink:href="#DejaVuSans-Bold-61" x="572.412109"/>
      <use xlink:href="#DejaVuSans-Bold-6e" x="639.892578"/>
      <use xlink:href="#DejaVuSans-Bold-63" x="711.083984"/>
      <use xlink:href="#DejaVuSans-Bold-65" x="770.361328"/>
      <use xlink:href="#DejaVuSans-Bold-28" x="838.183594"/>
      <use xlink:href="#DejaVuSans-Bold-6d" x="883.886719"/>
      <use xlink:href="#DejaVuSans-Bold-29" x="988.085938"/>
     </g>
    </g>
   </g>
   <g id="matplotlib.axis_2">
    <g id="ytick_1">
     <g id="line2d_8">
      <defs>
       <path id="m7e1bab4525" d="M 0 0 
L -3.5 0 
" style="stroke: #000000; stroke-width: 0.8"/>
      </defs>
      <g>
       <use xlink:href="#m7e1bab4525" x="63.38" y="284.3185" style="stroke: #000000; stroke-width: 0.8"/>
      </g>
     </g>
     <g id="text_9">
      <!-- 0.000 -->
      <g transform="translate(24.750313 288.117719) scale(0.1 -0.1)">
       <use xlink:href="#DejaVuSans-Bold-30"/>
       <use xlink:href="#DejaVuSans-Bold-2e" x="69.580078"/>
       <use xlink:href="#DejaVuSans-Bold-30" x="107.568359"/>
       <use xlink:href="#DejaVuSans-Bold-30" x="177.148438"/>
       <use xlink:href="#DejaVuSans-Bold-30" x="246.728516"/>
      </g>
     </g>
    </g>
    <g id="ytick_2">
     <g id="line2d_9">
      <g>
       <use xlink:href="#m7e1bab4525" x="63.38" y="232.5428" style="stroke: #000000; stroke-width: 0.8"/>
      </g>
     </g>
     <g id="text_10">
      <!-- 0.002 -->
      <g transform="translate(24.750313 236.342019) scale(0.1 -0.1)">
       <use xlink:href="#DejaVuSans-Bold-30"/>
       <use xlink:href="#DejaVuSans-Bold-2e" x="69.580078"/>
       <use xlink:href="#DejaVuSans-Bold-30" x="107.568359"/>
       <use xlink:href="#DejaVuSans-Bold-30" x="177.148438"/>
       <use xlink:href="#DejaVuSans-Bold-32" x="246.728516"/>
      </g>
     </g>
    </g>
    <g id="ytick_3">
     <g id="line2d_10">
      <g>
       <use xlink:href="#m7e1bab4525" x="63.38" y="180.7671" style="stroke: #000000; stroke-width: 0.8"/>
      </g>
     </g>
     <g id="text_11">
      <!-- 0.004 -->
      <g transform="translate(24.750313 184.566319) scale(0.1 -0.1)">
       <use xlink:href="#DejaVuSans-Bold-30"/>
       <use xlink:href="#DejaVuSans-Bold-2e" x="69.580078"/>
       <use xlink:href="#DejaVuSans-Bold-30" x="107.568359"/>
       <use xlink:href="#DejaVuSans-Bold-30" x="177.148438"/>
       <use xlink:href="#DejaVuSans-Bold-34" x="246.728516"/>
      </g>
     </g>
    </g>
    <g id="ytick_4">
     <g id="line2d_11">
      <g>
       <use xlink:href="#m7e1bab4525" x="63.38" y="128.9914" style="stroke: #000000; stroke-width: 0.8"/>
      </g>
     </g>
     <g id="text_12">
      <!-- 0.006 -->
      <g transform="translate(24.750313 132.790619) scale(0.1 -0.1)">
       <use xlink:href="#DejaVuSans-Bold-30"/>
       <use xlink:href="#DejaVuSans-Bold-2e" x="69.580078"/>
       <use xlink:href="#DejaVuSans-Bold-30" x="107.568359"/>
       <use xlink:href="#DejaVuSans-Bold-30" x="177.148438"/>
       <use xlink:href="#DejaVuSans-Bold-36" x="246.728516"/>
      </g>
     </g>
    </g>
    <g id="ytick_5">
     <g id="line2d_12">
      <g>
       <use xlink:href="#m7e1bab4525" x="63.38" y="77.2157" style="stroke: #000000; stroke-width: 0.8"/>
      </g>
     </g>
     <g id="text_13">
      <!-- 0.008 -->
      <g transform="translate(24.750313 81.014919) scale(0.1 -0.1)">
       <use xlink:href="#DejaVuSans-Bold-30"/>
       <use xlink:href="#DejaVuSans-Bold-2e" x="69.580078"/>
       <use xlink:href="#DejaVuSans-Bold-30" x="107.568359"/>
       <use xlink:href="#DejaVuSans-Bold-30" x="177.148438"/>
       <use xlink:href="#DejaVuSans-Bold-38" x="246.728516"/>
      </g>
     </g>
    </g>
    <g id="ytick_6">
     <g id="line2d_13">
      <g>
       <use xlink:href="#m7e1bab4525" x="63.38" y="25.44" style="stroke: #000000; stroke-width: 0.8"/>
      </g>
     </g>
     <g id="text_14">
      <!-- 0.010 -->
      <g transform="translate(24.750313 29.239219) scale(0.1 -0.1)">
       <use xlink:href="#DejaVuSans-Bold-30"/>
       <use xlink:href="#DejaVuSans-Bold-2e" x="69.580078"/>
       <use xlink:href="#DejaVuSans-Bold-30" x="107.568359"/>
       <use xlink:href="#DejaVuSans-Bold-31" x="177.148438"/>
       <use xlink:href="#DejaVuSans-Bold-30" x="246.728516"/>
      </g>
     </g>
    </g>
    <g id="text_15">
     <!-- flow speed (m/s) -->
     <g transform="translate(18.670625 201.803469) rotate(-90) scale(0.1 -0.1)">
      <defs>
       <path id="DejaVuSans-Bold-66" d="M 2841 4863 
L 2841 4128 
L 2222 4128 
Q 1984 4128 1890 4042 
Q 1797 3956 1797 3744 
L 1797 3500 
L 2753 3500 
L 2753 2700 
L 1797 2700 
L 1797 0 
L 678 0 
L 678 2700 
L 122 2700 
L 122 3500 
L 678 3500 
L 678 3744 
Q 678 4316 997 4589 
Q 1316 4863 1984 4863 
L 2841 4863 
z
" transform="scale(0.015625)"/>
       <path id="DejaVuSans-Bold-6f" d="M 2203 2784 
Q 1831 2784 1636 2517 
Q 1441 2250 1441 1747 
Q 1441 1244 1636 976 
Q 1831 709 2203 709 
Q 2569 709 2762 976 
Q 2956 1244 2956 1747 
Q 2956 2250 2762 2517 
Q 2569 2784 2203 2784 
z
M 2203 3584 
Q 3106 3584 3614 3096 
Q 4122 2609 4122 1747 
Q 4122 884 3614 396 
Q 3106 -91 2203 -91 
Q 1297 -91 786 396 
Q 275 884 275 1747 
Q 275 2609 786 3096 
Q 1297 3584 2203 3584 
z
" transform="scale(0.015625)"/>
       <path id="DejaVuSans-Bold-77" d="M 225 3500 
L 1313 3500 
L 1900 1088 
L 2491 3500 
L 3425 3500 
L 4013 1113 
L 4603 3500 
L 5691 3500 
L 4769 0 
L 3547 0 
L 2956 2406 
L 2369 0 
L 1147 0 
L 225 3500 
z
" transform="scale(0.015625)"/>
       <path id="DejaVuSans-Bold-70" d="M 1656 506 
L 1656 -1331 
L 538 -1331 
L 538 3500 
L 1656 3500 
L 1656 2988 
Q 1888 3294 2169 3439 
Q 2450 3584 2816 3584 
Q 3463 3584 3878 3070 
Q 4294 2556 4294 1747 
Q 4294 938 3878 423 
Q 3463 -91 2816 -91 
Q 2450 -91 2169 54 
Q 1888 200 1656 506 
z
M 2400 2772 
Q 2041 2772 1848 2508 
Q 1656 2244 1656 1747 
Q 1656 1250 1848 986 
Q 2041 722 2400 722 
Q 2759 722 2948 984 
Q 3138 1247 3138 1747 
Q 3138 2247 2948 2509 
Q 2759 2772 2400 2772 
z
" transform="scale(0.015625)"/>
       <path id="DejaVuSans-Bold-2f" d="M 1644 4666 
L 2338 4666 
L 691 -594 
L 0 -594 
L 1644 4666 
z
" transform="scale(0.015625)"/>
      </defs>
      <use xlink:href="#DejaVuSans-Bold-66"/>
      <use xlink:href="#DejaVuSans-Bold-6c" x="43.505859"/>
      <use xlink:href="#DejaVuSans-Bold-6f" x="77.783203"/>
      <use xlink:href="#DejaVuSans-Bold-77" x="146.484375"/>
      <use xlink:href="#DejaVuSans-Bold-20" x="238.867188"/>
      <use xlink:href="#DejaVuSans-Bold-73" x="273.681641"/>
      <use xlink:href="#DejaVuSans-Bold-70" x="333.203125"/>
      <use xlink:href="#DejaVuSans-Bold-65" x="404.785156"/>
      <use xlink:href="#DejaVuSans-Bold-65" x="472.607422"/>
      <use xlink:href="#DejaVuSans-Bold-64" x="540.429688"/>
      <use xlink:href="#DejaVuSans-Bold-20" x="612.011719"/>
      <use xlink:href="#DejaVuSans-Bold-28" x="646.826172"/>
      <use xlink:href="#DejaVuSans-Bold-6d" x="692.529297"/>
      <use xlink:href="#DejaVuSans-Bold-2f" x="796.728516"/>
      <use xlink:href="#DejaVuSans-Bold-73" x="833.251953"/>
      <use xlink:href="#DejaVuSans-Bold-29" x="892.773438"/>
     </g>
    </g>
   </g>
   <g id="LineCollection_1">
    <path d="M 124.863685 69.925615 
L 125.481611 69.925615 
" clip-path="url(#pbfe4f08b92)" style="fill: none; stroke: #1f77b4; stroke-width: 1.5"/>
    <path d="M 140.311847 68.108511 
L 140.929773 68.108511 
" clip-path="url(#pbfe4f08b92)" style="fill: none; stroke: #1f77b4; stroke-width: 1.5"/>
    <path d="M 155.760009 67.172687 
L 156.377935 67.172687 
" clip-path="url(#pbfe4f08b92)" style="fill: none; stroke: #1f77b4; stroke-width: 1.5"/>
    <path d="M 171.208171 66.927869 
L 171.826097 66.927869 
" clip-path="url(#pbfe4f08b92)" style="fill: none; stroke: #1f77b4; stroke-width: 1.5"/>
    <path d="M 186.656333 69.939251 
L 187.274259 69.939251 
" clip-path="url(#pbfe4f08b92)" style="fill: none; stroke: #1f77b4; stroke-width: 1.5"/>
    <path d="M 202.104495 73.744704 
L 202.722421 73.744704 
" clip-path="url(#pbfe4f08b92)" style="fill: none; stroke: #1f77b4; stroke-width: 1.5"/>
    <path d="M 217.552657 70.395905 
L 218.170583 70.395905 
" clip-path="url(#pbfe4f08b92)" style="fill: none; stroke: #1f77b4; stroke-width: 1.5"/>
    <path d="M 233.000819 77.898039 
L 233.618745 77.898039 
" clip-path="url(#pbfe4f08b92)" style="fill: none; stroke: #1f77b4; stroke-width: 1.5"/>
    <path d="M 248.448981 86.072787 
L 249.066907 86.072787 
" clip-path="url(#pbfe4f08b92)" style="fill: none; stroke: #1f77b4; stroke-width: 1.5"/>
    <path d="M 263.897143 97.729524 
L 264.515069 97.729524 
" clip-path="url(#pbfe4f08b92)" style="fill: none; stroke: #1f77b4; stroke-width: 1.5"/>
    <path d="M 279.345305 117.697687 
L 279.963231 117.697687 
" clip-path="url(#pbfe4f08b92)" style="fill: none; stroke: #1f77b4; stroke-width: 1.5"/>
    <path d="M 294.793467 133.345711 
L 295.411393 133.345711 
" clip-path="url(#pbfe4f08b92)" style="fill: none; stroke: #1f77b4; stroke-width: 1.5"/>
    <path d="M 310.241629 154.614388 
L 310.859555 154.614388 
" clip-path="url(#pbfe4f08b92)" style="fill: none; stroke: #1f77b4; stroke-width: 1.5"/>
    <path d="M 325.689791 170.043598 
L 326.307717 170.043598 
" clip-path="url(#pbfe4f08b92)" style="fill: none; stroke: #1f77b4; stroke-width: 1.5"/>
    <path d="M 341.137953 194.586233 
L 341.755879 194.586233 
" clip-path="url(#pbfe4f08b92)" style="fill: none; stroke: #1f77b4; stroke-width: 1.5"/>
    <path d="M 356.586115 229.088691 
L 357.204041 229.088691 
" clip-path="url(#pbfe4f08b92)" style="fill: none; stroke: #1f77b4; stroke-width: 1.5"/>
    <path d="M 372.034277 251.658516 
L 372.652203 251.658516 
" clip-path="url(#pbfe4f08b92)" style="fill: none; stroke: #1f77b4; stroke-width: 1.5"/>
   </g>
   <g id="LineCollection_2">
    <path d="M 125.172648 75.426454 
L 125.172648 64.424776 
" clip-path="url(#pbfe4f08b92)" style="fill: none; stroke: #1f77b4; stroke-width: 1.5"/>
    <path d="M 140.62081 73.120456 
L 140.62081 63.096567 
" clip-path="url(#pbfe4f08b92)" style="fill: none; stroke: #1f77b4; stroke-width: 1.5"/>
    <path d="M 156.068972 72.319793 
L 156.068972 62.02558 
" clip-path="url(#pbfe4f08b92)" style="fill: none; stroke: #1f77b4; stroke-width: 1.5"/>
    <path d="M 171.517134 73.195983 
L 171.517134 60.659755 
" clip-path="url(#pbfe4f08b92)" style="fill: none; stroke: #1f77b4; stroke-width: 1.5"/>
    <path d="M 186.965296 76.149345 
L 186.965296 63.729157 
" clip-path="url(#pbfe4f08b92)" style="fill: none; stroke: #1f77b4; stroke-width: 1.5"/>
    <path d="M 202.413458 80.94632 
L 202.413458 66.543088 
" clip-path="url(#pbfe4f08b92)" style="fill: none; stroke: #1f77b4; stroke-width: 1.5"/>
    <path d="M 217.86162 76.49457 
L 217.86162 64.297241 
" clip-path="url(#pbfe4f08b92)" style="fill: none; stroke: #1f77b4; stroke-width: 1.5"/>
    <path d="M 233.309782 85.95973 
L 233.309782 69.836348 
" clip-path="url(#pbfe4f08b92)" style="fill: none; stroke: #1f77b4; stroke-width: 1.5"/>
    <path d="M 248.757944 91.013843 
L 248.757944 81.13173 
" clip-path="url(#pbfe4f08b92)" style="fill: none; stroke: #1f77b4; stroke-width: 1.5"/>
    <path d="M 264.206106 105.429878 
L 264.206106 90.02917 
" clip-path="url(#pbfe4f08b92)" style="fill: none; stroke: #1f77b4; stroke-width: 1.5"/>
    <path d="M 279.654268 125.830696 
L 279.654268 109.564679 
" clip-path="url(#pbfe4f08b92)" style="fill: none; stroke: #1f77b4; stroke-width: 1.5"/>
    <path d="M 295.10243 143.996858 
L 295.10243 122.694563 
" clip-path="url(#pbfe4f08b92)" style="fill: none; stroke: #1f77b4; stroke-width: 1.5"/>
    <path d="M 310.550592 175.785593 
L 310.550592 133.443183 
" clip-path="url(#pbfe4f08b92)" style="fill: none; stroke: #1f77b4; stroke-width: 1.5"/>
    <path d="M 325.998754 183.20956 
L 325.998754 156.877635 
" clip-path="url(#pbfe4f08b92)" style="fill: none; stroke: #1f77b4; stroke-width: 1.5"/>
    <path d="M 341.446916 204.341048 
L 341.446916 184.831418 
" clip-path="url(#pbfe4f08b92)" style="fill: none; stroke: #1f77b4; stroke-width: 1.5"/>
    <path d="M 356.895078 234.944211 
L 356.895078 223.233171 
" clip-path="url(#pbfe4f08b92)" style="fill: none; stroke: #1f77b4; stroke-width: 1.5"/>
    <path d="M 372.34324 262.196461 
L 372.34324 241.120571 
" clip-path="url(#pbfe4f08b92)" style="fill: none; stroke: #1f77b4; stroke-width: 1.5"/>
   </g>
   <g id="line2d_14">
    <path d="M 125.172648 82.395677 
L 140.62081 82.214253 
L 156.068972 83.216352 
L 171.517134 85.401973 
L 186.965296 88.771115 
L 202.413458 93.32378 
L 217.86162 99.059967 
L 233.309782 105.979676 
L 248.757944 114.082907 
L 264.206106 123.369659 
L 279.654268 133.839934 
L 295.10243 145.493731 
L 310.550592 158.33105 
L 325.998754 172.351891 
L 341.446916 187.556254 
L 356.895078 203.944139 
L 372.34324 221.515547 
" clip-path="url(#pbfe4f08b92)" style="fill: none; stroke: #ff7f0e; stroke-width: 1.5; stroke-linecap: square"/>
   </g>
   <g id="line2d_15">
    <defs>
     <path id="mbd05f898d0" d="M 0 3 
C 0.795609 3 1.55874 2.683901 2.12132 2.12132 
C 2.683901 1.55874 3 0.795609 3 0 
C 3 -0.795609 2.683901 -1.55874 2.12132 -2.12132 
C 1.55874 -2.683901 0.795609 -3 0 -3 
C -0.795609 -3 -1.55874 -2.683901 -2.12132 -2.12132 
C -2.683901 -1.55874 -3 -0.795609 -3 0 
C -3 0.795609 -2.683901 1.55874 -2.12132 2.12132 
C -1.55874 2.683901 -0.795609 3 0 3 
z
" style="stroke: #1f77b4"/>
    </defs>
    <g clip-path="url(#pbfe4f08b92)">
     <use xlink:href="#mbd05f898d0" x="125.172648" y="69.925615" style="fill: #1f77b4; stroke: #1f77b4"/>
     <use xlink:href="#mbd05f898d0" x="140.62081" y="68.108511" style="fill: #1f77b4; stroke: #1f77b4"/>
     <use xlink:href="#mbd05f898d0" x="156.068972" y="67.172687" style="fill: #1f77b4; stroke: #1f77b4"/>
     <use xlink:href="#mbd05f898d0" x="171.517134" y="66.927869" style="fill: #1f77b4; stroke: #1f77b4"/>
     <use xlink:href="#mbd05f898d0" x="186.965296" y="69.939251" style="fill: #1f77b4; stroke: #1f77b4"/>
     <use xlink:href="#mbd05f898d0" x="202.413458" y="73.744704" style="fill: #1f77b4; stroke: #1f77b4"/>
     <use xlink:href="#mbd05f898d0" x="217.86162" y="70.395905" style="fill: #1f77b4; stroke: #1f77b4"/>
     <use xlink:href="#mbd05f898d0" x="233.309782" y="77.898039" style="fill: #1f77b4; stroke: #1f77b4"/>
     <use xlink:href="#mbd05f898d0" x="248.757944" y="86.072787" style="fill: #1f77b4; stroke: #1f77b4"/>
     <use xlink:href="#mbd05f898d0" x="264.206106" y="97.729524" style="fill: #1f77b4; stroke: #1f77b4"/>
     <use xlink:href="#mbd05f898d0" x="279.654268" y="117.697687" style="fill: #1f77b4; stroke: #1f77b4"/>
     <use xlink:href="#mbd05f898d0" x="295.10243" y="133.345711" style="fill: #1f77b4; stroke: #1f77b4"/>
     <use xlink:href="#mbd05f898d0" x="310.550592" y="154.614388" style="fill: #1f77b4; stroke: #1f77b4"/>
     <use xlink:href="#mbd05f898d0" x="325.998754" y="170.043598" style="fill: #1f77b4; stroke: #1f77b4"/>
     <use xlink:href="#mbd05f898d0" x="341.446916" y="194.586233" style="fill: #1f77b4; stroke: #1f77b4"/>
     <use xlink:href="#mbd05f898d0" x="356.895078" y="229.088691" style="fill: #1f77b4; stroke: #1f77b4"/>
     <use xlink:href="#mbd05f898d0" x="372.34324" y="251.658516" style="fill: #1f77b4; stroke: #1f77b4"/>
    </g>
   </g>
   <g id="patch_3">
    <path d="M 63.38 284.3185 
L 63.38 25.44 
" style="fill: none; stroke: #000000; stroke-width: 0.8; stroke-linejoin: miter; stroke-linecap: square"/>
   </g>
   <g id="patch_4">
    <path d="M 449.58405 284.3185 
L 449.58405 25.44 
" style="fill: none; stroke: #000000; stroke-width: 0.8; stroke-linejoin: miter; stroke-linecap: square"/>
   </g>
   <g id="patch_5">
    <path d="M 63.38 284.3185 
L 449.58405 284.3185 
" style="fill: none; stroke: #000000; stroke-width: 0.8; stroke-linejoin: miter; stroke-linecap: square"/>
   </g>
   <g id="patch_6">
    <path d="M 63.38 25.44 
L 449.58405 25.44 
" style="fill: none; stroke: #000000; stroke-width: 0.8; stroke-linejoin: miter; stroke-linecap: square"/>
   </g>
   <g id="text_16">
    <!-- flow speed vs radial distance -->
    <g transform="translate(157.81015 19.44) scale(0.12 -0.12)">
     <defs>
      <path id="DejaVuSans-Bold-76" d="M 97 3500 
L 1216 3500 
L 2088 1081 
L 2956 3500 
L 4078 3500 
L 2700 0 
L 1472 0 
L 97 3500 
z
" transform="scale(0.015625)"/>
     </defs>
     <use xlink:href="#DejaVuSans-Bold-66"/>
     <use xlink:href="#DejaVuSans-Bold-6c" x="43.505859"/>
     <use xlink:href="#DejaVuSans-Bold-6f" x="77.783203"/>
     <use xlink:href="#DejaVuSans-Bold-77" x="146.484375"/>
     <use xlink:href="#DejaVuSans-Bold-20" x="238.867188"/>
     <use xlink:href="#DejaVuSans-Bold-73" x="273.681641"/>
     <use xlink:href="#DejaVuSans-Bold-70" x="333.203125"/>
     <use xlink:href="#DejaVuSans-Bold-65" x="404.785156"/>
     <use xlink:href="#DejaVuSans-Bold-65" x="472.607422"/>
     <use xlink:href="#DejaVuSans-Bold-64" x="540.429688"/>
     <use xlink:href="#DejaVuSans-Bold-20" x="612.011719"/>
     <use xlink:href="#DejaVuSans-Bold-76" x="646.826172"/>
     <use xlink:href="#DejaVuSans-Bold-73" x="712.011719"/>
     <use xlink:href="#DejaVuSans-Bold-20" x="771.533203"/>
     <use xlink:href="#DejaVuSans-Bold-72" x="806.347656"/>
     <use xlink:href="#DejaVuSans-Bold-61" x="855.664062"/>
     <use xlink:href="#DejaVuSans-Bold-64" x="923.144531"/>
     <use xlink:href="#DejaVuSans-Bold-69" x="994.726562"/>
     <use xlink:href="#DejaVuSans-Bold-61" x="1029.003906"/>
     <use xlink:href="#DejaVuSans-Bold-6c" x="1096.484375"/>
     <use xlink:href="#DejaVuSans-Bold-20" x="1130.761719"/>
     <use xlink:href="#DejaVuSans-Bold-64" x="1165.576172"/>
     <use xlink:href="#DejaVuSans-Bold-69" x="1237.158203"/>
     <use xlink:href="#DejaVuSans-Bold-73" x="1271.435547"/>
     <use xlink:href="#DejaVuSans-Bold-74" x="1330.957031"/>
     <use xlink:href="#DejaVuSans-Bold-61" x="1378.759766"/>
     <use xlink:href="#DejaVuSans-Bold-6e" x="1446.240234"/>
     <use xlink:href="#DejaVuSans-Bold-63" x="1517.431641"/>
     <use xlink:href="#DejaVuSans-Bold-65" x="1576.708984"/>
    </g>
   </g>
   <g id="legend_1">
    <g id="patch_7">
     <path d="M 369.873113 48.118125 
L 442.58405 48.118125 
Q 444.58405 48.118125 444.58405 46.118125 
L 444.58405 32.44 
Q 444.58405 30.44 442.58405 30.44 
L 369.873113 30.44 
Q 367.873113 30.44 367.873113 32.44 
L 367.873113 46.118125 
Q 367.873113 48.118125 369.873113 48.118125 
z
" style="fill: #ffffff; opacity: 0.8; stroke: #cccccc; stroke-linejoin: miter"/>
    </g>
    <g id="line2d_16">
     <path d="M 371.873113 38.538437 
L 381.873113 38.538437 
L 391.873113 38.538437 
" style="fill: none; stroke: #ff7f0e; stroke-width: 1.5; stroke-linecap: square"/>
    </g>
    <g id="text_17">
     <!-- best fit -->
     <g transform="translate(399.873113 42.038437) scale(0.1 -0.1)">
      <defs>
       <path id="DejaVuSans-Bold-62" d="M 2400 722 
Q 2759 722 2948 984 
Q 3138 1247 3138 1747 
Q 3138 2247 2948 2509 
Q 2759 2772 2400 2772 
Q 2041 2772 1848 2508 
Q 1656 2244 1656 1747 
Q 1656 1250 1848 986 
Q 2041 722 2400 722 
z
M 1656 2988 
Q 1888 3294 2169 3439 
Q 2450 3584 2816 3584 
Q 3463 3584 3878 3070 
Q 4294 2556 4294 1747 
Q 4294 938 3878 423 
Q 3463 -91 2816 -91 
Q 2450 -91 2169 54 
Q 1888 200 1656 506 
L 1656 0 
L 538 0 
L 538 4863 
L 1656 4863 
L 1656 2988 
z
" transform="scale(0.015625)"/>
      </defs>
      <use xlink:href="#DejaVuSans-Bold-62"/>
      <use xlink:href="#DejaVuSans-Bold-65" x="71.582031"/>
      <use xlink:href="#DejaVuSans-Bold-73" x="139.404297"/>
      <use xlink:href="#DejaVuSans-Bold-74" x="198.925781"/>
      <use xlink:href="#DejaVuSans-Bold-20" x="246.728516"/>
      <use xlink:href="#DejaVuSans-Bold-66" x="281.542969"/>
      <use xlink:href="#DejaVuSans-Bold-69" x="325.048828"/>
      <use xlink:href="#DejaVuSans-Bold-74" x="359.326172"/>
     </g>
    </g>
   </g>
  </g>
 </g>
 <defs>
  <clipPath id="pbfe4f08b92">
   <rect x="63.38" y="25.44" width="386.20405" height="258.8785"/>
  </clipPath>
 </defs>
</svg>
