<?xml version="1.0" encoding="utf-8" standalone="no"?>
<!DOCTYPE svg PUBLIC "-//W3C//DTD SVG 1.1//EN"
  "http://www.w3.org/Graphics/SVG/1.1/DTD/svg11.dtd">
<svg xmlns:xlink="http://www.w3.org/1999/xlink" width="460.8pt" height="345.6pt" viewBox="0 0 460.8 345.6" xmlns="http://www.w3.org/2000/svg" version="1.1">
 <metadata>
  <rdf:RDF xmlns:dc="http://purl.org/dc/elements/1.1/" xmlns:cc="http://creativecommons.org/ns#" xmlns:rdf="http://www.w3.org/1999/02/22-rdf-syntax-ns#">
   <cc:Work>
    <dc:type rdf:resource="http://purl.org/dc/dcmitype/StillImage"/>
    <dc:date>2023-12-13T14:40:45.656129</dc:date>
    <dc:format>image/svg+xml</dc:format>
    <dc:creator>
     <cc:Agent>
      <dc:title>Matplotlib v3.6.2, https://matplotlib.org/</dc:title>
     </cc:Agent>
    </dc:creator>
   </cc:Work>
  </rdf:RDF>
 </metadata>
 <defs>
  <style type="text/css">*{stroke-linejoin: round; stroke-linecap: butt}</style>
 </defs>
 <g id="figure_1">
  <g id="patch_1">
   <path d="M 0 345.6 
L 460.8 345.6 
L 460.8 0 
L 0 0 
z
" style="fill: #ffffff"/>
  </g>
  <g id="axes_1">
   <g id="patch_2">
    <path d="M 60.59 286.291328 
L 436.285664 286.291328 
L 436.285664 25.44 
L 60.59 25.44 
z
" style="fill: #ffffff"/>
   </g>
   <g id="matplotlib.axis_1">
    <g id="xtick_1">
     <g id="line2d_1">
      <defs>
       <path id="m5f12d3d224" d="M 0 0 
L 0 3.5 
" style="stroke: #000000; stroke-width: 0.8"/>
      </defs>
      <g>
       <use xlink:href="#m5f12d3d224" x="60.59" y="286.291328" style="stroke: #000000; stroke-width: 0.8"/>
      </g>
     </g>
     <g id="text_1">
      <!-- 0.006 -->
      <g transform="translate(48.517257 298.664235) rotate(-315) scale(0.1 -0.1)">
       <defs>
        <path id="DejaVuSans-30" d="M 2034 4250 
Q 1547 4250 1301 3770 
Q 1056 3291 1056 2328 
Q 1056 1369 1301 889 
Q 1547 409 2034 409 
Q 2525 409 2770 889 
Q 3016 1369 3016 2328 
Q 3016 3291 2770 3770 
Q 2525 4250 2034 4250 
z
M 2034 4750 
Q 2819 4750 3233 4129 
Q 3647 3509 3647 2328 
Q 3647 1150 3233 529 
Q 2819 -91 2034 -91 
Q 1250 -91 836 529 
Q 422 1150 422 2328 
Q 422 3509 836 4129 
Q 1250 4750 2034 4750 
z
" transform="scale(0.015625)"/>
        <path id="DejaVuSans-2e" d="M 684 794 
L 1344 794 
L 1344 0 
L 684 0 
L 684 794 
z
" transform="scale(0.015625)"/>
        <path id="DejaVuSans-36" d="M 2113 2584 
Q 1688 2584 1439 2293 
Q 1191 2003 1191 1497 
Q 1191 994 1439 701 
Q 1688 409 2113 409 
Q 2538 409 2786 701 
Q 3034 994 3034 1497 
Q 3034 2003 2786 2293 
Q 2538 2584 2113 2584 
z
M 3366 4563 
L 3366 3988 
Q 3128 4100 2886 4159 
Q 2644 4219 2406 4219 
Q 1781 4219 1451 3797 
Q 1122 3375 1075 2522 
Q 1259 2794 1537 2939 
Q 1816 3084 2150 3084 
Q 2853 3084 3261 2657 
Q 3669 2231 3669 1497 
Q 3669 778 3244 343 
Q 2819 -91 2113 -91 
Q 1303 -91 875 529 
Q 447 1150 447 2328 
Q 447 3434 972 4092 
Q 1497 4750 2381 4750 
Q 2619 4750 2861 4703 
Q 3103 4656 3366 4563 
z
" transform="scale(0.015625)"/>
       </defs>
       <use xlink:href="#DejaVuSans-30"/>
       <use xlink:href="#DejaVuSans-2e" x="63.623047"/>
       <use xlink:href="#DejaVuSans-30" x="95.410156"/>
       <use xlink:href="#DejaVuSans-30" x="159.033203"/>
       <use xlink:href="#DejaVuSans-36" x="222.65625"/>
      </g>
     </g>
    </g>
    <g id="xtick_2">
     <g id="line2d_2">
      <g>
       <use xlink:href="#m5f12d3d224" x="107.551958" y="286.291328" style="stroke: #000000; stroke-width: 0.8"/>
      </g>
     </g>
     <g id="text_2">
      <!-- 0.008 -->
      <g transform="translate(95.479215 298.664235) rotate(-315) scale(0.1 -0.1)">
       <defs>
        <path id="DejaVuSans-38" d="M 2034 2216 
Q 1584 2216 1326 1975 
Q 1069 1734 1069 1313 
Q 1069 891 1326 650 
Q 1584 409 2034 409 
Q 2484 409 2743 651 
Q 3003 894 3003 1313 
Q 3003 1734 2745 1975 
Q 2488 2216 2034 2216 
z
M 1403 2484 
Q 997 2584 770 2862 
Q 544 3141 544 3541 
Q 544 4100 942 4425 
Q 1341 4750 2034 4750 
Q 2731 4750 3128 4425 
Q 3525 4100 3525 3541 
Q 3525 3141 3298 2862 
Q 3072 2584 2669 2484 
Q 3125 2378 3379 2068 
Q 3634 1759 3634 1313 
Q 3634 634 3220 271 
Q 2806 -91 2034 -91 
Q 1263 -91 848 271 
Q 434 634 434 1313 
Q 434 1759 690 2068 
Q 947 2378 1403 2484 
z
M 1172 3481 
Q 1172 3119 1398 2916 
Q 1625 2713 2034 2713 
Q 2441 2713 2670 2916 
Q 2900 3119 2900 3481 
Q 2900 3844 2670 4047 
Q 2441 4250 2034 4250 
Q 1625 4250 1398 4047 
Q 1172 3844 1172 3481 
z
" transform="scale(0.015625)"/>
       </defs>
       <use xlink:href="#DejaVuSans-30"/>
       <use xlink:href="#DejaVuSans-2e" x="63.623047"/>
       <use xlink:href="#DejaVuSans-30" x="95.410156"/>
       <use xlink:href="#DejaVuSans-30" x="159.033203"/>
       <use xlink:href="#DejaVuSans-38" x="222.65625"/>
      </g>
     </g>
    </g>
    <g id="xtick_3">
     <g id="line2d_3">
      <g>
       <use xlink:href="#m5f12d3d224" x="154.513916" y="286.291328" style="stroke: #000000; stroke-width: 0.8"/>
      </g>
     </g>
     <g id="text_3">
      <!-- 0.010 -->
      <g transform="translate(142.441173 298.664235) rotate(-315) scale(0.1 -0.1)">
       <defs>
        <path id="DejaVuSans-31" d="M 794 531 
L 1825 531 
L 1825 4091 
L 703 3866 
L 703 4441 
L 1819 4666 
L 2450 4666 
L 2450 531 
L 3481 531 
L 3481 0 
L 794 0 
L 794 531 
z
" transform="scale(0.015625)"/>
       </defs>
       <use xlink:href="#DejaVuSans-30"/>
       <use xlink:href="#DejaVuSans-2e" x="63.623047"/>
       <use xlink:href="#DejaVuSans-30" x="95.410156"/>
       <use xlink:href="#DejaVuSans-31" x="159.033203"/>
       <use xlink:href="#DejaVuSans-30" x="222.65625"/>
      </g>
     </g>
    </g>
    <g id="xtick_4">
     <g id="line2d_4">
      <g>
       <use xlink:href="#m5f12d3d224" x="201.475874" y="286.291328" style="stroke: #000000; stroke-width: 0.8"/>
      </g>
     </g>
     <g id="text_4">
      <!-- 0.012 -->
      <g transform="translate(189.403131 298.664235) rotate(-315) scale(0.1 -0.1)">
       <defs>
        <path id="DejaVuSans-32" d="M 1228 531 
L 3431 531 
L 3431 0 
L 469 0 
L 469 531 
Q 828 903 1448 1529 
Q 2069 2156 2228 2338 
Q 2531 2678 2651 2914 
Q 2772 3150 2772 3378 
Q 2772 3750 2511 3984 
Q 2250 4219 1831 4219 
Q 1534 4219 1204 4116 
Q 875 4013 500 3803 
L 500 4441 
Q 881 4594 1212 4672 
Q 1544 4750 1819 4750 
Q 2544 4750 2975 4387 
Q 3406 4025 3406 3419 
Q 3406 3131 3298 2873 
Q 3191 2616 2906 2266 
Q 2828 2175 2409 1742 
Q 1991 1309 1228 531 
z
" transform="scale(0.015625)"/>
       </defs>
       <use xlink:href="#DejaVuSans-30"/>
       <use xlink:href="#DejaVuSans-2e" x="63.623047"/>
       <use xlink:href="#DejaVuSans-30" x="95.410156"/>
       <use xlink:href="#DejaVuSans-31" x="159.033203"/>
       <use xlink:href="#DejaVuSans-32" x="222.65625"/>
      </g>
     </g>
    </g>
    <g id="xtick_5">
     <g id="line2d_5">
      <g>
       <use xlink:href="#m5f12d3d224" x="248.437832" y="286.291328" style="stroke: #000000; stroke-width: 0.8"/>
      </g>
     </g>
     <g id="text_5">
      <!-- 0.014 -->
      <g transform="translate(236.365089 298.664235) rotate(-315) scale(0.1 -0.1)">
       <defs>
        <path id="DejaVuSans-34" d="M 2419 4116 
L 825 1625 
L 2419 1625 
L 2419 4116 
z
M 2253 4666 
L 3047 4666 
L 3047 1625 
L 3713 1625 
L 3713 1100 
L 3047 1100 
L 3047 0 
L 2419 0 
L 2419 1100 
L 313 1100 
L 313 1709 
L 2253 4666 
z
" transform="scale(0.015625)"/>
       </defs>
       <use xlink:href="#DejaVuSans-30"/>
       <use xlink:href="#DejaVuSans-2e" x="63.623047"/>
       <use xlink:href="#DejaVuSans-30" x="95.410156"/>
       <use xlink:href="#DejaVuSans-31" x="159.033203"/>
       <use xlink:href="#DejaVuSans-34" x="222.65625"/>
      </g>
     </g>
    </g>
    <g id="xtick_6">
     <g id="line2d_6">
      <g>
       <use xlink:href="#m5f12d3d224" x="295.39979" y="286.291328" style="stroke: #000000; stroke-width: 0.8"/>
      </g>
     </g>
     <g id="text_6">
      <!-- 0.016 -->
      <g transform="translate(283.327047 298.664235) rotate(-315) scale(0.1 -0.1)">
       <use xlink:href="#DejaVuSans-30"/>
       <use xlink:href="#DejaVuSans-2e" x="63.623047"/>
       <use xlink:href="#DejaVuSans-30" x="95.410156"/>
       <use xlink:href="#DejaVuSans-31" x="159.033203"/>
       <use xlink:href="#DejaVuSans-36" x="222.65625"/>
      </g>
     </g>
    </g>
    <g id="xtick_7">
     <g id="line2d_7">
      <g>
       <use xlink:href="#m5f12d3d224" x="342.361748" y="286.291328" style="stroke: #000000; stroke-width: 0.8"/>
      </g>
     </g>
     <g id="text_7">
      <!-- 0.018 -->
      <g transform="translate(330.289005 298.664235) rotate(-315) scale(0.1 -0.1)">
       <use xlink:href="#DejaVuSans-30"/>
       <use xlink:href="#DejaVuSans-2e" x="63.623047"/>
       <use xlink:href="#DejaVuSans-30" x="95.410156"/>
       <use xlink:href="#DejaVuSans-31" x="159.033203"/>
       <use xlink:href="#DejaVuSans-38" x="222.65625"/>
      </g>
     </g>
    </g>
    <g id="xtick_8">
     <g id="line2d_8">
      <g>
       <use xlink:href="#m5f12d3d224" x="389.323706" y="286.291328" style="stroke: #000000; stroke-width: 0.8"/>
      </g>
     </g>
     <g id="text_8">
      <!-- 0.020 -->
      <g transform="translate(377.250963 298.664235) rotate(-315) scale(0.1 -0.1)">
       <use xlink:href="#DejaVuSans-30"/>
       <use xlink:href="#DejaVuSans-2e" x="63.623047"/>
       <use xlink:href="#DejaVuSans-30" x="95.410156"/>
       <use xlink:href="#DejaVuSans-32" x="159.033203"/>
       <use xlink:href="#DejaVuSans-30" x="222.65625"/>
      </g>
     </g>
    </g>
    <g id="xtick_9">
     <g id="line2d_9">
      <g>
       <use xlink:href="#m5f12d3d224" x="436.285664" y="286.291328" style="stroke: #000000; stroke-width: 0.8"/>
      </g>
     </g>
     <g id="text_9">
      <!-- 0.022 -->
      <g transform="translate(424.212921 298.664235) rotate(-315) scale(0.1 -0.1)">
       <use xlink:href="#DejaVuSans-30"/>
       <use xlink:href="#DejaVuSans-2e" x="63.623047"/>
       <use xlink:href="#DejaVuSans-30" x="95.410156"/>
       <use xlink:href="#DejaVuSans-32" x="159.033203"/>
       <use xlink:href="#DejaVuSans-32" x="222.65625"/>
      </g>
     </g>
    </g>
    <g id="text_10">
     <!-- radial distance(m) -->
     <g transform="translate(202.754238 331.976375) scale(0.1 -0.1)">
      <defs>
       <path id="DejaVuSans-72" d="M 2631 2963 
Q 2534 3019 2420 3045 
Q 2306 3072 2169 3072 
Q 1681 3072 1420 2755 
Q 1159 2438 1159 1844 
L 1159 0 
L 581 0 
L 581 3500 
L 1159 3500 
L 1159 2956 
Q 1341 3275 1631 3429 
Q 1922 3584 2338 3584 
Q 2397 3584 2469 3576 
Q 2541 3569 2628 3553 
L 2631 2963 
z
" transform="scale(0.015625)"/>
       <path id="DejaVuSans-61" d="M 2194 1759 
Q 1497 1759 1228 1600 
Q 959 1441 959 1056 
Q 959 750 1161 570 
Q 1363 391 1709 391 
Q 2188 391 2477 730 
Q 2766 1069 2766 1631 
L 2766 1759 
L 2194 1759 
z
M 3341 1997 
L 3341 0 
L 2766 0 
L 2766 531 
Q 2569 213 2275 61 
Q 1981 -91 1556 -91 
Q 1019 -91 701 211 
Q 384 513 384 1019 
Q 384 1609 779 1909 
Q 1175 2209 1959 2209 
L 2766 2209 
L 2766 2266 
Q 2766 2663 2505 2880 
Q 2244 3097 1772 3097 
Q 1472 3097 1187 3025 
Q 903 2953 641 2809 
L 641 3341 
Q 956 3463 1253 3523 
Q 1550 3584 1831 3584 
Q 2591 3584 2966 3190 
Q 3341 2797 3341 1997 
z
" transform="scale(0.015625)"/>
       <path id="DejaVuSans-64" d="M 2906 2969 
L 2906 4863 
L 3481 4863 
L 3481 0 
L 2906 0 
L 2906 525 
Q 2725 213 2448 61 
Q 2172 -91 1784 -91 
Q 1150 -91 751 415 
Q 353 922 353 1747 
Q 353 2572 751 3078 
Q 1150 3584 1784 3584 
Q 2172 3584 2448 3432 
Q 2725 3281 2906 2969 
z
M 947 1747 
Q 947 1113 1208 752 
Q 1469 391 1925 391 
Q 2381 391 2643 752 
Q 2906 1113 2906 1747 
Q 2906 2381 2643 2742 
Q 2381 3103 1925 3103 
Q 1469 3103 1208 2742 
Q 947 2381 947 1747 
z
" transform="scale(0.015625)"/>
       <path id="DejaVuSans-69" d="M 603 3500 
L 1178 3500 
L 1178 0 
L 603 0 
L 603 3500 
z
M 603 4863 
L 1178 4863 
L 1178 4134 
L 603 4134 
L 603 4863 
z
" transform="scale(0.015625)"/>
       <path id="DejaVuSans-6c" d="M 603 4863 
L 1178 4863 
L 1178 0 
L 603 0 
L 603 4863 
z
" transform="scale(0.015625)"/>
       <path id="DejaVuSans-20" transform="scale(0.015625)"/>
       <path id="DejaVuSans-73" d="M 2834 3397 
L 2834 2853 
Q 2591 2978 2328 3040 
Q 2066 3103 1784 3103 
Q 1356 3103 1142 2972 
Q 928 2841 928 2578 
Q 928 2378 1081 2264 
Q 1234 2150 1697 2047 
L 1894 2003 
Q 2506 1872 2764 1633 
Q 3022 1394 3022 966 
Q 3022 478 2636 193 
Q 2250 -91 1575 -91 
Q 1294 -91 989 -36 
Q 684 19 347 128 
L 347 722 
Q 666 556 975 473 
Q 1284 391 1588 391 
Q 1994 391 2212 530 
Q 2431 669 2431 922 
Q 2431 1156 2273 1281 
Q 2116 1406 1581 1522 
L 1381 1569 
Q 847 1681 609 1914 
Q 372 2147 372 2553 
Q 372 3047 722 3315 
Q 1072 3584 1716 3584 
Q 2034 3584 2315 3537 
Q 2597 3491 2834 3397 
z
" transform="scale(0.015625)"/>
       <path id="DejaVuSans-74" d="M 1172 4494 
L 1172 3500 
L 2356 3500 
L 2356 3053 
L 1172 3053 
L 1172 1153 
Q 1172 725 1289 603 
Q 1406 481 1766 481 
L 2356 481 
L 2356 0 
L 1766 0 
Q 1100 0 847 248 
Q 594 497 594 1153 
L 594 3053 
L 172 3053 
L 172 3500 
L 594 3500 
L 594 4494 
L 1172 4494 
z
" transform="scale(0.015625)"/>
       <path id="DejaVuSans-6e" d="M 3513 2113 
L 3513 0 
L 2938 0 
L 2938 2094 
Q 2938 2591 2744 2837 
Q 2550 3084 2163 3084 
Q 1697 3084 1428 2787 
Q 1159 2491 1159 1978 
L 1159 0 
L 581 0 
L 581 3500 
L 1159 3500 
L 1159 2956 
Q 1366 3272 1645 3428 
Q 1925 3584 2291 3584 
Q 2894 3584 3203 3211 
Q 3513 2838 3513 2113 
z
" transform="scale(0.015625)"/>
       <path id="DejaVuSans-63" d="M 3122 3366 
L 3122 2828 
Q 2878 2963 2633 3030 
Q 2388 3097 2138 3097 
Q 1578 3097 1268 2742 
Q 959 2388 959 1747 
Q 959 1106 1268 751 
Q 1578 397 2138 397 
Q 2388 397 2633 464 
Q 2878 531 3122 666 
L 3122 134 
Q 2881 22 2623 -34 
Q 2366 -91 2075 -91 
Q 1284 -91 818 406 
Q 353 903 353 1747 
Q 353 2603 823 3093 
Q 1294 3584 2113 3584 
Q 2378 3584 2631 3529 
Q 2884 3475 3122 3366 
z
" transform="scale(0.015625)"/>
       <path id="DejaVuSans-65" d="M 3597 1894 
L 3597 1613 
L 953 1613 
Q 991 1019 1311 708 
Q 1631 397 2203 397 
Q 2534 397 2845 478 
Q 3156 559 3463 722 
L 3463 178 
Q 3153 47 2828 -22 
Q 2503 -91 2169 -91 
Q 1331 -91 842 396 
Q 353 884 353 1716 
Q 353 2575 817 3079 
Q 1281 3584 2069 3584 
Q 2775 3584 3186 3129 
Q 3597 2675 3597 1894 
z
M 3022 2063 
Q 3016 2534 2758 2815 
Q 2500 3097 2075 3097 
Q 1594 3097 1305 2825 
Q 1016 2553 972 2059 
L 3022 2063 
z
" transform="scale(0.015625)"/>
       <path id="DejaVuSans-28" d="M 1984 4856 
Q 1566 4138 1362 3434 
Q 1159 2731 1159 2009 
Q 1159 1288 1364 580 
Q 1569 -128 1984 -844 
L 1484 -844 
Q 1016 -109 783 600 
Q 550 1309 550 2009 
Q 550 2706 781 3412 
Q 1013 4119 1484 4856 
L 1984 4856 
z
" transform="scale(0.015625)"/>
       <path id="DejaVuSans-6d" d="M 3328 2828 
Q 3544 3216 3844 3400 
Q 4144 3584 4550 3584 
Q 5097 3584 5394 3201 
Q 5691 2819 5691 2113 
L 5691 0 
L 5113 0 
L 5113 2094 
Q 5113 2597 4934 2840 
Q 4756 3084 4391 3084 
Q 3944 3084 3684 2787 
Q 3425 2491 3425 1978 
L 3425 0 
L 2847 0 
L 2847 2094 
Q 2847 2600 2669 2842 
Q 2491 3084 2119 3084 
Q 1678 3084 1418 2786 
Q 1159 2488 1159 1978 
L 1159 0 
L 581 0 
L 581 3500 
L 1159 3500 
L 1159 2956 
Q 1356 3278 1631 3431 
Q 1906 3584 2284 3584 
Q 2666 3584 2933 3390 
Q 3200 3197 3328 2828 
z
" transform="scale(0.015625)"/>
       <path id="DejaVuSans-29" d="M 513 4856 
L 1013 4856 
Q 1481 4119 1714 3412 
Q 1947 2706 1947 2009 
Q 1947 1309 1714 600 
Q 1481 -109 1013 -844 
L 513 -844 
Q 928 -128 1133 580 
Q 1338 1288 1338 2009 
Q 1338 2731 1133 3434 
Q 928 4138 513 4856 
z
" transform="scale(0.015625)"/>
      </defs>
      <use xlink:href="#DejaVuSans-72"/>
      <use xlink:href="#DejaVuSans-61" x="41.113281"/>
      <use xlink:href="#DejaVuSans-64" x="102.392578"/>
      <use xlink:href="#DejaVuSans-69" x="165.869141"/>
      <use xlink:href="#DejaVuSans-61" x="193.652344"/>
      <use xlink:href="#DejaVuSans-6c" x="254.931641"/>
      <use xlink:href="#DejaVuSans-20" x="282.714844"/>
      <use xlink:href="#DejaVuSans-64" x="314.501953"/>
      <use xlink:href="#DejaVuSans-69" x="377.978516"/>
      <use xlink:href="#DejaVuSans-73" x="405.761719"/>
      <use xlink:href="#DejaVuSans-74" x="457.861328"/>
      <use xlink:href="#DejaVuSans-61" x="497.070312"/>
      <use xlink:href="#DejaVuSans-6e" x="558.349609"/>
      <use xlink:href="#DejaVuSans-63" x="621.728516"/>
      <use xlink:href="#DejaVuSans-65" x="676.708984"/>
      <use xlink:href="#DejaVuSans-28" x="738.232422"/>
      <use xlink:href="#DejaVuSans-6d" x="777.246094"/>
      <use xlink:href="#DejaVuSans-29" x="874.658203"/>
     </g>
    </g>
   </g>
   <g id="matplotlib.axis_2">
    <g id="ytick_1">
     <g id="line2d_10">
      <defs>
       <path id="m6da1256f87" d="M 0 0 
L -3.5 0 
" style="stroke: #000000; stroke-width: 0.8"/>
      </defs>
      <g>
       <use xlink:href="#m6da1256f87" x="60.59" y="286.291328" style="stroke: #000000; stroke-width: 0.8"/>
      </g>
     </g>
     <g id="text_11">
      <!-- 0.002 -->
      <g transform="translate(24.961875 290.090547) scale(0.1 -0.1)">
       <use xlink:href="#DejaVuSans-30"/>
       <use xlink:href="#DejaVuSans-2e" x="63.623047"/>
       <use xlink:href="#DejaVuSans-30" x="95.410156"/>
       <use xlink:href="#DejaVuSans-30" x="159.033203"/>
       <use xlink:href="#DejaVuSans-32" x="222.65625"/>
      </g>
     </g>
    </g>
    <g id="ytick_2">
     <g id="line2d_11">
      <g>
       <use xlink:href="#m6da1256f87" x="60.59" y="253.684912" style="stroke: #000000; stroke-width: 0.8"/>
      </g>
     </g>
     <g id="text_12">
      <!-- 0.003 -->
      <g transform="translate(24.961875 257.484131) scale(0.1 -0.1)">
       <defs>
        <path id="DejaVuSans-33" d="M 2597 2516 
Q 3050 2419 3304 2112 
Q 3559 1806 3559 1356 
Q 3559 666 3084 287 
Q 2609 -91 1734 -91 
Q 1441 -91 1130 -33 
Q 819 25 488 141 
L 488 750 
Q 750 597 1062 519 
Q 1375 441 1716 441 
Q 2309 441 2620 675 
Q 2931 909 2931 1356 
Q 2931 1769 2642 2001 
Q 2353 2234 1838 2234 
L 1294 2234 
L 1294 2753 
L 1863 2753 
Q 2328 2753 2575 2939 
Q 2822 3125 2822 3475 
Q 2822 3834 2567 4026 
Q 2313 4219 1838 4219 
Q 1578 4219 1281 4162 
Q 984 4106 628 3988 
L 628 4550 
Q 988 4650 1302 4700 
Q 1616 4750 1894 4750 
Q 2613 4750 3031 4423 
Q 3450 4097 3450 3541 
Q 3450 3153 3228 2886 
Q 3006 2619 2597 2516 
z
" transform="scale(0.015625)"/>
       </defs>
       <use xlink:href="#DejaVuSans-30"/>
       <use xlink:href="#DejaVuSans-2e" x="63.623047"/>
       <use xlink:href="#DejaVuSans-30" x="95.410156"/>
       <use xlink:href="#DejaVuSans-30" x="159.033203"/>
       <use xlink:href="#DejaVuSans-33" x="222.65625"/>
      </g>
     </g>
    </g>
    <g id="ytick_3">
     <g id="line2d_12">
      <g>
       <use xlink:href="#m6da1256f87" x="60.59" y="221.078496" style="stroke: #000000; stroke-width: 0.8"/>
      </g>
     </g>
     <g id="text_13">
      <!-- 0.004 -->
      <g transform="translate(24.961875 224.877715) scale(0.1 -0.1)">
       <use xlink:href="#DejaVuSans-30"/>
       <use xlink:href="#DejaVuSans-2e" x="63.623047"/>
       <use xlink:href="#DejaVuSans-30" x="95.410156"/>
       <use xlink:href="#DejaVuSans-30" x="159.033203"/>
       <use xlink:href="#DejaVuSans-34" x="222.65625"/>
      </g>
     </g>
    </g>
    <g id="ytick_4">
     <g id="line2d_13">
      <g>
       <use xlink:href="#m6da1256f87" x="60.59" y="188.47208" style="stroke: #000000; stroke-width: 0.8"/>
      </g>
     </g>
     <g id="text_14">
      <!-- 0.005 -->
      <g transform="translate(24.961875 192.271299) scale(0.1 -0.1)">
       <defs>
        <path id="DejaVuSans-35" d="M 691 4666 
L 3169 4666 
L 3169 4134 
L 1269 4134 
L 1269 2991 
Q 1406 3038 1543 3061 
Q 1681 3084 1819 3084 
Q 2600 3084 3056 2656 
Q 3513 2228 3513 1497 
Q 3513 744 3044 326 
Q 2575 -91 1722 -91 
Q 1428 -91 1123 -41 
Q 819 9 494 109 
L 494 744 
Q 775 591 1075 516 
Q 1375 441 1709 441 
Q 2250 441 2565 725 
Q 2881 1009 2881 1497 
Q 2881 1984 2565 2268 
Q 2250 2553 1709 2553 
Q 1456 2553 1204 2497 
Q 953 2441 691 2322 
L 691 4666 
z
" transform="scale(0.015625)"/>
       </defs>
       <use xlink:href="#DejaVuSans-30"/>
       <use xlink:href="#DejaVuSans-2e" x="63.623047"/>
       <use xlink:href="#DejaVuSans-30" x="95.410156"/>
       <use xlink:href="#DejaVuSans-30" x="159.033203"/>
       <use xlink:href="#DejaVuSans-35" x="222.65625"/>
      </g>
     </g>
    </g>
    <g id="ytick_5">
     <g id="line2d_14">
      <g>
       <use xlink:href="#m6da1256f87" x="60.59" y="155.865664" style="stroke: #000000; stroke-width: 0.8"/>
      </g>
     </g>
     <g id="text_15">
      <!-- 0.006 -->
      <g transform="translate(24.961875 159.664883) scale(0.1 -0.1)">
       <use xlink:href="#DejaVuSans-30"/>
       <use xlink:href="#DejaVuSans-2e" x="63.623047"/>
       <use xlink:href="#DejaVuSans-30" x="95.410156"/>
       <use xlink:href="#DejaVuSans-30" x="159.033203"/>
       <use xlink:href="#DejaVuSans-36" x="222.65625"/>
      </g>
     </g>
    </g>
    <g id="ytick_6">
     <g id="line2d_15">
      <g>
       <use xlink:href="#m6da1256f87" x="60.59" y="123.259248" style="stroke: #000000; stroke-width: 0.8"/>
      </g>
     </g>
     <g id="text_16">
      <!-- 0.007 -->
      <g transform="translate(24.961875 127.058467) scale(0.1 -0.1)">
       <defs>
        <path id="DejaVuSans-37" d="M 525 4666 
L 3525 4666 
L 3525 4397 
L 1831 0 
L 1172 0 
L 2766 4134 
L 525 4134 
L 525 4666 
z
" transform="scale(0.015625)"/>
       </defs>
       <use xlink:href="#DejaVuSans-30"/>
       <use xlink:href="#DejaVuSans-2e" x="63.623047"/>
       <use xlink:href="#DejaVuSans-30" x="95.410156"/>
       <use xlink:href="#DejaVuSans-30" x="159.033203"/>
       <use xlink:href="#DejaVuSans-37" x="222.65625"/>
      </g>
     </g>
    </g>
    <g id="ytick_7">
     <g id="line2d_16">
      <g>
       <use xlink:href="#m6da1256f87" x="60.59" y="90.652832" style="stroke: #000000; stroke-width: 0.8"/>
      </g>
     </g>
     <g id="text_17">
      <!-- 0.008 -->
      <g transform="translate(24.961875 94.452051) scale(0.1 -0.1)">
       <use xlink:href="#DejaVuSans-30"/>
       <use xlink:href="#DejaVuSans-2e" x="63.623047"/>
       <use xlink:href="#DejaVuSans-30" x="95.410156"/>
       <use xlink:href="#DejaVuSans-30" x="159.033203"/>
       <use xlink:href="#DejaVuSans-38" x="222.65625"/>
      </g>
     </g>
    </g>
    <g id="ytick_8">
     <g id="line2d_17">
      <g>
       <use xlink:href="#m6da1256f87" x="60.59" y="58.046416" style="stroke: #000000; stroke-width: 0.8"/>
      </g>
     </g>
     <g id="text_18">
      <!-- 0.009 -->
      <g transform="translate(24.961875 61.845635) scale(0.1 -0.1)">
       <defs>
        <path id="DejaVuSans-39" d="M 703 97 
L 703 672 
Q 941 559 1184 500 
Q 1428 441 1663 441 
Q 2288 441 2617 861 
Q 2947 1281 2994 2138 
Q 2813 1869 2534 1725 
Q 2256 1581 1919 1581 
Q 1219 1581 811 2004 
Q 403 2428 403 3163 
Q 403 3881 828 4315 
Q 1253 4750 1959 4750 
Q 2769 4750 3195 4129 
Q 3622 3509 3622 2328 
Q 3622 1225 3098 567 
Q 2575 -91 1691 -91 
Q 1453 -91 1209 -44 
Q 966 3 703 97 
z
M 1959 2075 
Q 2384 2075 2632 2365 
Q 2881 2656 2881 3163 
Q 2881 3666 2632 3958 
Q 2384 4250 1959 4250 
Q 1534 4250 1286 3958 
Q 1038 3666 1038 3163 
Q 1038 2656 1286 2365 
Q 1534 2075 1959 2075 
z
" transform="scale(0.015625)"/>
       </defs>
       <use xlink:href="#DejaVuSans-30"/>
       <use xlink:href="#DejaVuSans-2e" x="63.623047"/>
       <use xlink:href="#DejaVuSans-30" x="95.410156"/>
       <use xlink:href="#DejaVuSans-30" x="159.033203"/>
       <use xlink:href="#DejaVuSans-39" x="222.65625"/>
      </g>
     </g>
    </g>
    <g id="ytick_9">
     <g id="line2d_18">
      <g>
       <use xlink:href="#m6da1256f87" x="60.59" y="25.44" style="stroke: #000000; stroke-width: 0.8"/>
      </g>
     </g>
     <g id="text_19">
      <!-- 0.010 -->
      <g transform="translate(24.961875 29.239219) scale(0.1 -0.1)">
       <use xlink:href="#DejaVuSans-30"/>
       <use xlink:href="#DejaVuSans-2e" x="63.623047"/>
       <use xlink:href="#DejaVuSans-30" x="95.410156"/>
       <use xlink:href="#DejaVuSans-31" x="159.033203"/>
       <use xlink:href="#DejaVuSans-30" x="222.65625"/>
      </g>
     </g>
    </g>
    <g id="text_20">
     <!-- flow speed (m/s) -->
     <g transform="translate(18.882188 197.508633) rotate(-90) scale(0.1 -0.1)">
      <defs>
       <path id="DejaVuSans-66" d="M 2375 4863 
L 2375 4384 
L 1825 4384 
Q 1516 4384 1395 4259 
Q 1275 4134 1275 3809 
L 1275 3500 
L 2222 3500 
L 2222 3053 
L 1275 3053 
L 1275 0 
L 697 0 
L 697 3053 
L 147 3053 
L 147 3500 
L 697 3500 
L 697 3744 
Q 697 4328 969 4595 
Q 1241 4863 1831 4863 
L 2375 4863 
z
" transform="scale(0.015625)"/>
       <path id="DejaVuSans-6f" d="M 1959 3097 
Q 1497 3097 1228 2736 
Q 959 2375 959 1747 
Q 959 1119 1226 758 
Q 1494 397 1959 397 
Q 2419 397 2687 759 
Q 2956 1122 2956 1747 
Q 2956 2369 2687 2733 
Q 2419 3097 1959 3097 
z
M 1959 3584 
Q 2709 3584 3137 3096 
Q 3566 2609 3566 1747 
Q 3566 888 3137 398 
Q 2709 -91 1959 -91 
Q 1206 -91 779 398 
Q 353 888 353 1747 
Q 353 2609 779 3096 
Q 1206 3584 1959 3584 
z
" transform="scale(0.015625)"/>
       <path id="DejaVuSans-77" d="M 269 3500 
L 844 3500 
L 1563 769 
L 2278 3500 
L 2956 3500 
L 3675 769 
L 4391 3500 
L 4966 3500 
L 4050 0 
L 3372 0 
L 2619 2869 
L 1863 0 
L 1184 0 
L 269 3500 
z
" transform="scale(0.015625)"/>
       <path id="DejaVuSans-70" d="M 1159 525 
L 1159 -1331 
L 581 -1331 
L 581 3500 
L 1159 3500 
L 1159 2969 
Q 1341 3281 1617 3432 
Q 1894 3584 2278 3584 
Q 2916 3584 3314 3078 
Q 3713 2572 3713 1747 
Q 3713 922 3314 415 
Q 2916 -91 2278 -91 
Q 1894 -91 1617 61 
Q 1341 213 1159 525 
z
M 3116 1747 
Q 3116 2381 2855 2742 
Q 2594 3103 2138 3103 
Q 1681 3103 1420 2742 
Q 1159 2381 1159 1747 
Q 1159 1113 1420 752 
Q 1681 391 2138 391 
Q 2594 391 2855 752 
Q 3116 1113 3116 1747 
z
" transform="scale(0.015625)"/>
       <path id="DejaVuSans-2f" d="M 1625 4666 
L 2156 4666 
L 531 -594 
L 0 -594 
L 1625 4666 
z
" transform="scale(0.015625)"/>
      </defs>
      <use xlink:href="#DejaVuSans-66"/>
      <use xlink:href="#DejaVuSans-6c" x="35.205078"/>
      <use xlink:href="#DejaVuSans-6f" x="62.988281"/>
      <use xlink:href="#DejaVuSans-77" x="124.169922"/>
      <use xlink:href="#DejaVuSans-20" x="205.957031"/>
      <use xlink:href="#DejaVuSans-73" x="237.744141"/>
      <use xlink:href="#DejaVuSans-70" x="289.84375"/>
      <use xlink:href="#DejaVuSans-65" x="353.320312"/>
      <use xlink:href="#DejaVuSans-65" x="414.84375"/>
      <use xlink:href="#DejaVuSans-64" x="476.367188"/>
      <use xlink:href="#DejaVuSans-20" x="539.84375"/>
      <use xlink:href="#DejaVuSans-28" x="571.630859"/>
      <use xlink:href="#DejaVuSans-6d" x="610.644531"/>
      <use xlink:href="#DejaVuSans-2f" x="708.056641"/>
      <use xlink:href="#DejaVuSans-73" x="741.748047"/>
      <use xlink:href="#DejaVuSans-29" x="793.847656"/>
     </g>
    </g>
   </g>
   <g id="LineCollection_1">
    <path d="M 107.317148 140.393146 
L 107.786768 140.393146 
" clip-path="url(#p50422056af)" style="fill: none; stroke: #ffa500; stroke-width: 1.5"/>
    <path d="M 130.798127 128.822284 
L 131.267747 128.822284 
" clip-path="url(#p50422056af)" style="fill: none; stroke: #ffa500; stroke-width: 1.5"/>
    <path d="M 154.279106 116.992996 
L 154.748726 116.992996 
" clip-path="url(#p50422056af)" style="fill: none; stroke: #ffa500; stroke-width: 1.5"/>
    <path d="M 177.760085 106.434669 
L 178.229705 106.434669 
" clip-path="url(#p50422056af)" style="fill: none; stroke: #ffa500; stroke-width: 1.5"/>
    <path d="M 201.241064 94.858216 
L 201.710684 94.858216 
" clip-path="url(#p50422056af)" style="fill: none; stroke: #ffa500; stroke-width: 1.5"/>
    <path d="M 224.722043 84.71409 
L 225.191663 84.71409 
" clip-path="url(#p50422056af)" style="fill: none; stroke: #ffa500; stroke-width: 1.5"/>
    <path d="M 248.203022 84.648185 
L 248.672642 84.648185 
" clip-path="url(#p50422056af)" style="fill: none; stroke: #ffa500; stroke-width: 1.5"/>
    <path d="M 271.684001 93.71427 
L 272.153621 93.71427 
" clip-path="url(#p50422056af)" style="fill: none; stroke: #ffa500; stroke-width: 1.5"/>
    <path d="M 295.16498 144.812753 
L 295.6346 144.812753 
" clip-path="url(#p50422056af)" style="fill: none; stroke: #ffa500; stroke-width: 1.5"/>
    <path d="M 318.645959 217.846704 
L 319.115579 217.846704 
" clip-path="url(#p50422056af)" style="fill: none; stroke: #ffa500; stroke-width: 1.5"/>
   </g>
   <g id="LineCollection_2">
    <path d="M 107.551958 145.103015 
L 107.551958 135.683277 
" clip-path="url(#p50422056af)" style="fill: none; stroke: #ffa500; stroke-width: 1.5"/>
    <path d="M 131.032937 134.501354 
L 131.032937 123.143215 
" clip-path="url(#p50422056af)" style="fill: none; stroke: #ffa500; stroke-width: 1.5"/>
    <path d="M 154.513916 122.10713 
L 154.513916 111.878862 
" clip-path="url(#p50422056af)" style="fill: none; stroke: #ffa500; stroke-width: 1.5"/>
    <path d="M 177.994895 112.19398 
L 177.994895 100.675359 
" clip-path="url(#p50422056af)" style="fill: none; stroke: #ffa500; stroke-width: 1.5"/>
    <path d="M 201.475874 99.978797 
L 201.475874 89.737635 
" clip-path="url(#p50422056af)" style="fill: none; stroke: #ffa500; stroke-width: 1.5"/>
    <path d="M 224.956853 90.140842 
L 224.956853 79.287337 
" clip-path="url(#p50422056af)" style="fill: none; stroke: #ffa500; stroke-width: 1.5"/>
    <path d="M 248.437832 91.279618 
L 248.437832 78.016752 
" clip-path="url(#p50422056af)" style="fill: none; stroke: #ffa500; stroke-width: 1.5"/>
    <path d="M 271.918811 97.321734 
L 271.918811 90.106807 
" clip-path="url(#p50422056af)" style="fill: none; stroke: #ffa500; stroke-width: 1.5"/>
    <path d="M 295.39979 153.658155 
L 295.39979 135.967351 
" clip-path="url(#p50422056af)" style="fill: none; stroke: #ffa500; stroke-width: 1.5"/>
    <path d="M 318.880769 248.083634 
L 318.880769 187.609775 
" clip-path="url(#p50422056af)" style="fill: none; stroke: #ffa500; stroke-width: 1.5"/>
   </g>
   <g id="line2d_19">
    <path d="M 107.551958 169.113186 
L 131.032937 129.209195 
L 154.513916 100.58591 
L 177.994895 83.243333 
L 201.475874 77.181462 
L 224.956853 82.400298 
L 248.437832 98.899841 
L 271.918811 126.680091 
L 295.39979 165.741049 
L 318.880769 216.082713 
" clip-path="url(#p50422056af)" style="fill: none; stroke-dasharray: 5.55,2.4; stroke-dashoffset: 0; stroke: #ffa500; stroke-opacity: 0.7; stroke-width: 1.5"/>
   </g>
   <g id="LineCollection_3">
    <path d="M 107.317148 119.185025 
L 107.786768 119.185025 
" clip-path="url(#p50422056af)" style="fill: none; stroke: #008000; stroke-width: 1.5"/>
    <path d="M 130.798127 114.422315 
L 131.267747 114.422315 
" clip-path="url(#p50422056af)" style="fill: none; stroke: #008000; stroke-width: 1.5"/>
    <path d="M 154.279106 103.335153 
L 154.748726 103.335153 
" clip-path="url(#p50422056af)" style="fill: none; stroke: #008000; stroke-width: 1.5"/>
    <path d="M 177.760085 96.255394 
L 178.229705 96.255394 
" clip-path="url(#p50422056af)" style="fill: none; stroke: #008000; stroke-width: 1.5"/>
    <path d="M 201.241064 84.708098 
L 201.710684 84.708098 
" clip-path="url(#p50422056af)" style="fill: none; stroke: #008000; stroke-width: 1.5"/>
    <path d="M 224.722043 81.749179 
L 225.191663 81.749179 
" clip-path="url(#p50422056af)" style="fill: none; stroke: #008000; stroke-width: 1.5"/>
    <path d="M 248.203022 84.555519 
L 248.672642 84.555519 
" clip-path="url(#p50422056af)" style="fill: none; stroke: #008000; stroke-width: 1.5"/>
    <path d="M 271.684001 110.108954 
L 272.153621 110.108954 
" clip-path="url(#p50422056af)" style="fill: none; stroke: #008000; stroke-width: 1.5"/>
    <path d="M 295.16498 153.861264 
L 295.6346 153.861264 
" clip-path="url(#p50422056af)" style="fill: none; stroke: #008000; stroke-width: 1.5"/>
    <path d="M 318.645959 240.673684 
L 319.115579 240.673684 
" clip-path="url(#p50422056af)" style="fill: none; stroke: #008000; stroke-width: 1.5"/>
   </g>
   <g id="LineCollection_4">
    <path d="M 107.551958 124.683827 
L 107.551958 113.686224 
" clip-path="url(#p50422056af)" style="fill: none; stroke: #008000; stroke-width: 1.5"/>
    <path d="M 131.032937 120.356582 
L 131.032937 108.488048 
" clip-path="url(#p50422056af)" style="fill: none; stroke: #008000; stroke-width: 1.5"/>
    <path d="M 154.513916 107.682186 
L 154.513916 98.98812 
" clip-path="url(#p50422056af)" style="fill: none; stroke: #008000; stroke-width: 1.5"/>
    <path d="M 177.994895 102.048619 
L 177.994895 90.46217 
" clip-path="url(#p50422056af)" style="fill: none; stroke: #008000; stroke-width: 1.5"/>
    <path d="M 201.475874 89.750506 
L 201.475874 79.665691 
" clip-path="url(#p50422056af)" style="fill: none; stroke: #008000; stroke-width: 1.5"/>
    <path d="M 224.956853 88.197941 
L 224.956853 75.300416 
" clip-path="url(#p50422056af)" style="fill: none; stroke: #008000; stroke-width: 1.5"/>
    <path d="M 248.437832 90.977679 
L 248.437832 78.133359 
" clip-path="url(#p50422056af)" style="fill: none; stroke: #008000; stroke-width: 1.5"/>
    <path d="M 271.918811 114.486002 
L 271.918811 105.731907 
" clip-path="url(#p50422056af)" style="fill: none; stroke: #008000; stroke-width: 1.5"/>
    <path d="M 295.39979 167.053769 
L 295.39979 140.668758 
" clip-path="url(#p50422056af)" style="fill: none; stroke: #008000; stroke-width: 1.5"/>
    <path d="M 318.880769 264.819071 
L 318.880769 216.528296 
" clip-path="url(#p50422056af)" style="fill: none; stroke: #008000; stroke-width: 1.5"/>
   </g>
   <g id="line2d_20">
    <path d="M 107.551958 150.470084 
L 131.032937 109.941537 
L 154.513916 81.903572 
L 177.994895 66.356189 
L 201.475874 63.299388 
L 224.956853 72.733169 
L 248.437832 94.657531 
L 271.918811 129.072476 
L 295.39979 175.978003 
L 318.880769 235.374111 
" clip-path="url(#p50422056af)" style="fill: none; stroke-dasharray: 5.55,2.4; stroke-dashoffset: 0; stroke: #008000; stroke-opacity: 0.7; stroke-width: 1.5"/>
   </g>
   <g id="LineCollection_5">
    <path d="M 83.836169 113.49925 
L 84.305789 113.49925 
" clip-path="url(#p50422056af)" style="fill: none; stroke: #ff0000; stroke-width: 1.5"/>
    <path d="M 107.317148 105.057861 
L 107.786768 105.057861 
" clip-path="url(#p50422056af)" style="fill: none; stroke: #ff0000; stroke-width: 1.5"/>
    <path d="M 130.798127 96.342868 
L 131.267747 96.342868 
" clip-path="url(#p50422056af)" style="fill: none; stroke: #ff0000; stroke-width: 1.5"/>
    <path d="M 154.279106 90.098701 
L 154.748726 90.098701 
" clip-path="url(#p50422056af)" style="fill: none; stroke: #ff0000; stroke-width: 1.5"/>
    <path d="M 177.760085 84.161689 
L 178.229705 84.161689 
" clip-path="url(#p50422056af)" style="fill: none; stroke: #ff0000; stroke-width: 1.5"/>
    <path d="M 201.241064 83.606093 
L 201.710684 83.606093 
" clip-path="url(#p50422056af)" style="fill: none; stroke: #ff0000; stroke-width: 1.5"/>
    <path d="M 224.722043 97.239171 
L 225.191663 97.239171 
" clip-path="url(#p50422056af)" style="fill: none; stroke: #ff0000; stroke-width: 1.5"/>
    <path d="M 248.203022 133.207141 
L 248.672642 133.207141 
" clip-path="url(#p50422056af)" style="fill: none; stroke: #ff0000; stroke-width: 1.5"/>
    <path d="M 271.684001 162.483192 
L 272.153621 162.483192 
" clip-path="url(#p50422056af)" style="fill: none; stroke: #ff0000; stroke-width: 1.5"/>
    <path d="M 295.16498 227.001062 
L 295.6346 227.001062 
" clip-path="url(#p50422056af)" style="fill: none; stroke: #ff0000; stroke-width: 1.5"/>
    <path d="M 318.645959 253.019824 
L 319.115579 253.019824 
" clip-path="url(#p50422056af)" style="fill: none; stroke: #ff0000; stroke-width: 1.5"/>
   </g>
   <g id="LineCollection_6">
    <path d="M 84.070979 118.137334 
L 84.070979 108.861166 
" clip-path="url(#p50422056af)" style="fill: none; stroke: #ff0000; stroke-width: 1.5"/>
    <path d="M 107.551958 111.192198 
L 107.551958 98.923524 
" clip-path="url(#p50422056af)" style="fill: none; stroke: #ff0000; stroke-width: 1.5"/>
    <path d="M 131.032937 102.011413 
L 131.032937 90.674323 
" clip-path="url(#p50422056af)" style="fill: none; stroke: #ff0000; stroke-width: 1.5"/>
    <path d="M 154.513916 96.027498 
L 154.513916 84.169903 
" clip-path="url(#p50422056af)" style="fill: none; stroke: #ff0000; stroke-width: 1.5"/>
    <path d="M 177.994895 90.464043 
L 177.994895 77.859335 
" clip-path="url(#p50422056af)" style="fill: none; stroke: #ff0000; stroke-width: 1.5"/>
    <path d="M 201.475874 89.518252 
L 201.475874 77.693933 
" clip-path="url(#p50422056af)" style="fill: none; stroke: #ff0000; stroke-width: 1.5"/>
    <path d="M 224.956853 105.891396 
L 224.956853 88.586947 
" clip-path="url(#p50422056af)" style="fill: none; stroke: #ff0000; stroke-width: 1.5"/>
    <path d="M 248.437832 135.254144 
L 248.437832 131.160138 
" clip-path="url(#p50422056af)" style="fill: none; stroke: #ff0000; stroke-width: 1.5"/>
    <path d="M 271.918811 169.980434 
L 271.918811 154.985949 
" clip-path="url(#p50422056af)" style="fill: none; stroke: #ff0000; stroke-width: 1.5"/>
    <path d="M 295.39979 244.664616 
L 295.39979 209.337508 
" clip-path="url(#p50422056af)" style="fill: none; stroke: #ff0000; stroke-width: 1.5"/>
    <path d="M 318.880769 270.070301 
L 318.880769 235.969347 
" clip-path="url(#p50422056af)" style="fill: none; stroke: #ff0000; stroke-width: 1.5"/>
   </g>
   <g id="line2d_21">
    <path d="M 84.070979 120.708213 
L 107.551958 100.349749 
L 131.032937 87.652989 
L 154.513916 82.617936 
L 177.994895 85.244587 
L 201.475874 95.532944 
L 224.956853 113.483006 
L 248.437832 139.094773 
L 271.918811 172.368246 
L 295.39979 213.303424 
L 318.880769 261.900307 
" clip-path="url(#p50422056af)" style="fill: none; stroke-dasharray: 5.55,2.4; stroke-dashoffset: 0; stroke: #ff0000; stroke-opacity: 0.7; stroke-width: 1.5"/>
   </g>
   <g id="line2d_22">
    <defs>
     <path id="m120517e841" d="M 0 3 
C 0.795609 3 1.55874 2.683901 2.12132 2.12132 
C 2.683901 1.55874 3 0.795609 3 0 
C 3 -0.795609 2.683901 -1.55874 2.12132 -2.12132 
C 1.55874 -2.683901 0.795609 -3 0 -3 
C -0.795609 -3 -1.55874 -2.683901 -2.12132 -2.12132 
C -2.683901 -1.55874 -3 -0.795609 -3 0 
C -3 0.795609 -2.683901 1.55874 -2.12132 2.12132 
C -1.55874 2.683901 -0.795609 3 0 3 
z
" style="stroke: #ffa500"/>
    </defs>
    <g clip-path="url(#p50422056af)">
     <use xlink:href="#m120517e841" x="107.551958" y="140.393146" style="fill: #ffa500; stroke: #ffa500"/>
     <use xlink:href="#m120517e841" x="131.032937" y="128.822284" style="fill: #ffa500; stroke: #ffa500"/>
     <use xlink:href="#m120517e841" x="154.513916" y="116.992996" style="fill: #ffa500; stroke: #ffa500"/>
     <use xlink:href="#m120517e841" x="177.994895" y="106.434669" style="fill: #ffa500; stroke: #ffa500"/>
     <use xlink:href="#m120517e841" x="201.475874" y="94.858216" style="fill: #ffa500; stroke: #ffa500"/>
     <use xlink:href="#m120517e841" x="224.956853" y="84.71409" style="fill: #ffa500; stroke: #ffa500"/>
     <use xlink:href="#m120517e841" x="248.437832" y="84.648185" style="fill: #ffa500; stroke: #ffa500"/>
     <use xlink:href="#m120517e841" x="271.918811" y="93.71427" style="fill: #ffa500; stroke: #ffa500"/>
     <use xlink:href="#m120517e841" x="295.39979" y="144.812753" style="fill: #ffa500; stroke: #ffa500"/>
     <use xlink:href="#m120517e841" x="318.880769" y="217.846704" style="fill: #ffa500; stroke: #ffa500"/>
    </g>
   </g>
   <g id="line2d_23">
    <defs>
     <path id="m7eecb4c288" d="M 0 3 
C 0.795609 3 1.55874 2.683901 2.12132 2.12132 
C 2.683901 1.55874 3 0.795609 3 0 
C 3 -0.795609 2.683901 -1.55874 2.12132 -2.12132 
C 1.55874 -2.683901 0.795609 -3 0 -3 
C -0.795609 -3 -1.55874 -2.683901 -2.12132 -2.12132 
C -2.683901 -1.55874 -3 -0.795609 -3 0 
C -3 0.795609 -2.683901 1.55874 -2.12132 2.12132 
C -1.55874 2.683901 -0.795609 3 0 3 
z
" style="stroke: #008000"/>
    </defs>
    <g clip-path="url(#p50422056af)">
     <use xlink:href="#m7eecb4c288" x="107.551958" y="119.185025" style="fill: #008000; stroke: #008000"/>
     <use xlink:href="#m7eecb4c288" x="131.032937" y="114.422315" style="fill: #008000; stroke: #008000"/>
     <use xlink:href="#m7eecb4c288" x="154.513916" y="103.335153" style="fill: #008000; stroke: #008000"/>
     <use xlink:href="#m7eecb4c288" x="177.994895" y="96.255394" style="fill: #008000; stroke: #008000"/>
     <use xlink:href="#m7eecb4c288" x="201.475874" y="84.708098" style="fill: #008000; stroke: #008000"/>
     <use xlink:href="#m7eecb4c288" x="224.956853" y="81.749179" style="fill: #008000; stroke: #008000"/>
     <use xlink:href="#m7eecb4c288" x="248.437832" y="84.555519" style="fill: #008000; stroke: #008000"/>
     <use xlink:href="#m7eecb4c288" x="271.918811" y="110.108954" style="fill: #008000; stroke: #008000"/>
     <use xlink:href="#m7eecb4c288" x="295.39979" y="153.861264" style="fill: #008000; stroke: #008000"/>
     <use xlink:href="#m7eecb4c288" x="318.880769" y="240.673684" style="fill: #008000; stroke: #008000"/>
    </g>
   </g>
   <g id="line2d_24">
    <defs>
     <path id="mad9007eb90" d="M 0 3 
C 0.795609 3 1.55874 2.683901 2.12132 2.12132 
C 2.683901 1.55874 3 0.795609 3 0 
C 3 -0.795609 2.683901 -1.55874 2.12132 -2.12132 
C 1.55874 -2.683901 0.795609 -3 0 -3 
C -0.795609 -3 -1.55874 -2.683901 -2.12132 -2.12132 
C -2.683901 -1.55874 -3 -0.795609 -3 0 
C -3 0.795609 -2.683901 1.55874 -2.12132 2.12132 
C -1.55874 2.683901 -0.795609 3 0 3 
z
" style="stroke: #ff0000"/>
    </defs>
    <g clip-path="url(#p50422056af)">
     <use xlink:href="#mad9007eb90" x="84.070979" y="113.49925" style="fill: #ff0000; stroke: #ff0000"/>
     <use xlink:href="#mad9007eb90" x="107.551958" y="105.057861" style="fill: #ff0000; stroke: #ff0000"/>
     <use xlink:href="#mad9007eb90" x="131.032937" y="96.342868" style="fill: #ff0000; stroke: #ff0000"/>
     <use xlink:href="#mad9007eb90" x="154.513916" y="90.098701" style="fill: #ff0000; stroke: #ff0000"/>
     <use xlink:href="#mad9007eb90" x="177.994895" y="84.161689" style="fill: #ff0000; stroke: #ff0000"/>
     <use xlink:href="#mad9007eb90" x="201.475874" y="83.606093" style="fill: #ff0000; stroke: #ff0000"/>
     <use xlink:href="#mad9007eb90" x="224.956853" y="97.239171" style="fill: #ff0000; stroke: #ff0000"/>
     <use xlink:href="#mad9007eb90" x="248.437832" y="133.207141" style="fill: #ff0000; stroke: #ff0000"/>
     <use xlink:href="#mad9007eb90" x="271.918811" y="162.483192" style="fill: #ff0000; stroke: #ff0000"/>
     <use xlink:href="#mad9007eb90" x="295.39979" y="227.001062" style="fill: #ff0000; stroke: #ff0000"/>
     <use xlink:href="#mad9007eb90" x="318.880769" y="253.019824" style="fill: #ff0000; stroke: #ff0000"/>
    </g>
   </g>
   <g id="patch_3">
    <path d="M 60.59 286.291328 
L 60.59 25.44 
" style="fill: none; stroke: #000000; stroke-width: 0.8; stroke-linejoin: miter; stroke-linecap: square"/>
   </g>
   <g id="patch_4">
    <path d="M 436.285664 286.291328 
L 436.285664 25.44 
" style="fill: none; stroke: #000000; stroke-width: 0.8; stroke-linejoin: miter; stroke-linecap: square"/>
   </g>
   <g id="patch_5">
    <path d="M 60.59 286.291328 
L 436.285664 286.291328 
" style="fill: none; stroke: #000000; stroke-width: 0.8; stroke-linejoin: miter; stroke-linecap: square"/>
   </g>
   <g id="patch_6">
    <path d="M 60.59 25.44 
L 436.285664 25.44 
" style="fill: none; stroke: #000000; stroke-width: 0.8; stroke-linejoin: miter; stroke-linecap: square"/>
   </g>
   <g id="text_21">
    <!-- flow speed vs radial distance -->
    <g transform="translate(161.261582 19.44) scale(0.12 -0.12)">
     <defs>
      <path id="DejaVuSans-76" d="M 191 3500 
L 800 3500 
L 1894 563 
L 2988 3500 
L 3597 3500 
L 2284 0 
L 1503 0 
L 191 3500 
z
" transform="scale(0.015625)"/>
     </defs>
     <use xlink:href="#DejaVuSans-66"/>
     <use xlink:href="#DejaVuSans-6c" x="35.205078"/>
     <use xlink:href="#DejaVuSans-6f" x="62.988281"/>
     <use xlink:href="#DejaVuSans-77" x="124.169922"/>
     <use xlink:href="#DejaVuSans-20" x="205.957031"/>
     <use xlink:href="#DejaVuSans-73" x="237.744141"/>
     <use xlink:href="#DejaVuSans-70" x="289.84375"/>
     <use xlink:href="#DejaVuSans-65" x="353.320312"/>
     <use xlink:href="#DejaVuSans-65" x="414.84375"/>
     <use xlink:href="#DejaVuSans-64" x="476.367188"/>
     <use xlink:href="#DejaVuSans-20" x="539.84375"/>
     <use xlink:href="#DejaVuSans-76" x="571.630859"/>
     <use xlink:href="#DejaVuSans-73" x="630.810547"/>
     <use xlink:href="#DejaVuSans-20" x="682.910156"/>
     <use xlink:href="#DejaVuSans-72" x="714.697266"/>
     <use xlink:href="#DejaVuSans-61" x="755.810547"/>
     <use xlink:href="#DejaVuSans-64" x="817.089844"/>
     <use xlink:href="#DejaVuSans-69" x="880.566406"/>
     <use xlink:href="#DejaVuSans-61" x="908.349609"/>
     <use xlink:href="#DejaVuSans-6c" x="969.628906"/>
     <use xlink:href="#DejaVuSans-20" x="997.412109"/>
     <use xlink:href="#DejaVuSans-64" x="1029.199219"/>
     <use xlink:href="#DejaVuSans-69" x="1092.675781"/>
     <use xlink:href="#DejaVuSans-73" x="1120.458984"/>
     <use xlink:href="#DejaVuSans-74" x="1172.558594"/>
     <use xlink:href="#DejaVuSans-61" x="1211.767578"/>
     <use xlink:href="#DejaVuSans-6e" x="1273.046875"/>
     <use xlink:href="#DejaVuSans-63" x="1336.425781"/>
     <use xlink:href="#DejaVuSans-65" x="1391.40625"/>
    </g>
   </g>
   <g id="legend_1">
    <g id="patch_7">
     <path d="M 352.555976 121.50875 
L 429.285664 121.50875 
Q 431.285664 121.50875 431.285664 119.50875 
L 431.285664 32.44 
Q 431.285664 30.44 429.285664 30.44 
L 352.555976 30.44 
Q 350.555976 30.44 350.555976 32.44 
L 350.555976 119.50875 
Q 350.555976 121.50875 352.555976 121.50875 
z
" style="fill: #ffffff; opacity: 0.8; stroke: #cccccc; stroke-linejoin: miter"/>
    </g>
    <g id="line2d_25">
     <path d="M 354.555976 38.538437 
L 364.555976 38.538437 
L 374.555976 38.538437 
" style="fill: none; stroke-dasharray: 5.55,2.4; stroke-dashoffset: 0; stroke: #ffa500; stroke-opacity: 0.7; stroke-width: 1.5"/>
    </g>
    <g id="text_22">
     <!-- fit: 12cm -->
     <g transform="translate(382.555976 42.038437) scale(0.1 -0.1)">
      <defs>
       <path id="DejaVuSans-3a" d="M 750 794 
L 1409 794 
L 1409 0 
L 750 0 
L 750 794 
z
M 750 3309 
L 1409 3309 
L 1409 2516 
L 750 2516 
L 750 3309 
z
" transform="scale(0.015625)"/>
      </defs>
      <use xlink:href="#DejaVuSans-66"/>
      <use xlink:href="#DejaVuSans-69" x="35.205078"/>
      <use xlink:href="#DejaVuSans-74" x="62.988281"/>
      <use xlink:href="#DejaVuSans-3a" x="102.197266"/>
      <use xlink:href="#DejaVuSans-20" x="135.888672"/>
      <use xlink:href="#DejaVuSans-31" x="167.675781"/>
      <use xlink:href="#DejaVuSans-32" x="231.298828"/>
      <use xlink:href="#DejaVuSans-63" x="294.921875"/>
      <use xlink:href="#DejaVuSans-6d" x="349.902344"/>
     </g>
    </g>
    <g id="line2d_26">
     <path d="M 354.555976 53.216562 
L 364.555976 53.216562 
L 374.555976 53.216562 
" style="fill: none; stroke-dasharray: 5.55,2.4; stroke-dashoffset: 0; stroke: #008000; stroke-opacity: 0.7; stroke-width: 1.5"/>
    </g>
    <g id="text_23">
     <!-- fit: 14cm -->
     <g transform="translate(382.555976 56.716562) scale(0.1 -0.1)">
      <use xlink:href="#DejaVuSans-66"/>
      <use xlink:href="#DejaVuSans-69" x="35.205078"/>
      <use xlink:href="#DejaVuSans-74" x="62.988281"/>
      <use xlink:href="#DejaVuSans-3a" x="102.197266"/>
      <use xlink:href="#DejaVuSans-20" x="135.888672"/>
      <use xlink:href="#DejaVuSans-31" x="167.675781"/>
      <use xlink:href="#DejaVuSans-34" x="231.298828"/>
      <use xlink:href="#DejaVuSans-63" x="294.921875"/>
      <use xlink:href="#DejaVuSans-6d" x="349.902344"/>
     </g>
    </g>
    <g id="line2d_27">
     <path d="M 354.555976 67.894687 
L 364.555976 67.894687 
L 374.555976 67.894687 
" style="fill: none; stroke-dasharray: 5.55,2.4; stroke-dashoffset: 0; stroke: #ff0000; stroke-opacity: 0.7; stroke-width: 1.5"/>
    </g>
    <g id="text_24">
     <!-- fit: 16cm -->
     <g transform="translate(382.555976 71.394687) scale(0.1 -0.1)">
      <use xlink:href="#DejaVuSans-66"/>
      <use xlink:href="#DejaVuSans-69" x="35.205078"/>
      <use xlink:href="#DejaVuSans-74" x="62.988281"/>
      <use xlink:href="#DejaVuSans-3a" x="102.197266"/>
      <use xlink:href="#DejaVuSans-20" x="135.888672"/>
      <use xlink:href="#DejaVuSans-31" x="167.675781"/>
      <use xlink:href="#DejaVuSans-36" x="231.298828"/>
      <use xlink:href="#DejaVuSans-63" x="294.921875"/>
      <use xlink:href="#DejaVuSans-6d" x="349.902344"/>
     </g>
    </g>
    <g id="LineCollection_7">
     <path d="M 359.555976 82.572812 
L 369.555976 82.572812 
" style="fill: none; stroke: #ffa500; stroke-width: 1.5"/>
    </g>
    <g id="LineCollection_8">
     <path d="M 364.555976 87.572812 
L 364.555976 77.572812 
" style="fill: none; stroke: #ffa500; stroke-width: 1.5"/>
    </g>
    <g id="line2d_28"/>
    <g id="line2d_29">
     <g>
      <use xlink:href="#m120517e841" x="364.555976" y="82.572812" style="fill: #ffa500; stroke: #ffa500"/>
     </g>
    </g>
    <g id="text_25">
     <!-- 12cm -->
     <g transform="translate(382.555976 86.072812) scale(0.1 -0.1)">
      <use xlink:href="#DejaVuSans-31"/>
      <use xlink:href="#DejaVuSans-32" x="63.623047"/>
      <use xlink:href="#DejaVuSans-63" x="127.246094"/>
      <use xlink:href="#DejaVuSans-6d" x="182.226562"/>
     </g>
    </g>
    <g id="LineCollection_9">
     <path d="M 359.555976 97.250937 
L 369.555976 97.250937 
" style="fill: none; stroke: #008000; stroke-width: 1.5"/>
    </g>
    <g id="LineCollection_10">
     <path d="M 364.555976 102.250937 
L 364.555976 92.250937 
" style="fill: none; stroke: #008000; stroke-width: 1.5"/>
    </g>
    <g id="line2d_30"/>
    <g id="line2d_31">
     <g>
      <use xlink:href="#m7eecb4c288" x="364.555976" y="97.250937" style="fill: #008000; stroke: #008000"/>
     </g>
    </g>
    <g id="text_26">
     <!-- 14cm -->
     <g transform="translate(382.555976 100.750937) scale(0.1 -0.1)">
      <use xlink:href="#DejaVuSans-31"/>
      <use xlink:href="#DejaVuSans-34" x="63.623047"/>
      <use xlink:href="#DejaVuSans-63" x="127.246094"/>
      <use xlink:href="#DejaVuSans-6d" x="182.226562"/>
     </g>
    </g>
    <g id="LineCollection_11">
     <path d="M 359.555976 111.929062 
L 369.555976 111.929062 
" style="fill: none; stroke: #ff0000; stroke-width: 1.5"/>
    </g>
    <g id="LineCollection_12">
     <path d="M 364.555976 116.929062 
L 364.555976 106.929062 
" style="fill: none; stroke: #ff0000; stroke-width: 1.5"/>
    </g>
    <g id="line2d_32"/>
    <g id="line2d_33">
     <g>
      <use xlink:href="#mad9007eb90" x="364.555976" y="111.929062" style="fill: #ff0000; stroke: #ff0000"/>
     </g>
    </g>
    <g id="text_27">
     <!-- 16cm -->
     <g transform="translate(382.555976 115.429062) scale(0.1 -0.1)">
      <use xlink:href="#DejaVuSans-31"/>
      <use xlink:href="#DejaVuSans-36" x="63.623047"/>
      <use xlink:href="#DejaVuSans-63" x="127.246094"/>
      <use xlink:href="#DejaVuSans-6d" x="182.226562"/>
     </g>
    </g>
   </g>
  </g>
 </g>
 <defs>
  <clipPath id="p50422056af">
   <rect x="60.59" y="25.44" width="375.695664" height="260.851328"/>
  </clipPath>
 </defs>
</svg>
